<svg xmlns="http://www.w3.org/2000/svg" width="225.251" height="225.251" viewBox="0 0 225.251 225.251">
  <defs>
    <style>
      .cls-1 {
        fill: #4711ef;
      }
    </style>
  </defs>
  <path id="Path_1" data-name="Path 1" class="cls-1" d="M1043.128,492.68H1007.4a94.767,94.767,0,0,0-94.763,94.763v35.726a94.767,94.767,0,0,0,94.763,94.763h35.726a94.767,94.767,0,0,0,94.763-94.763V587.443A94.767,94.767,0,0,0,1043.128,492.68Zm40.7,128.546a42.647,42.647,0,0,1-42.643,42.643h-31.84A42.647,42.647,0,0,1,966.7,621.226v-31.84a42.647,42.647,0,0,1,42.643-42.643h31.84a42.647,42.647,0,0,1,42.643,42.643Z" transform="translate(-912.64 -492.68)"/>
</svg>
