<svg xmlns="http://www.w3.org/2000/svg" viewBox="0 0 250 250"><defs><style>.cls-1{fill:#111;}.cls-2{fill:#fff;}</style></defs><g id="Layer_2" data-name="Layer 2"><g id="Layer_3" data-name="Layer 3"><path class="cls-1" d="M0,0H250V250H0ZM164.38,140a21.89,21.89,0,1,0-21.82-21.83A22,22,0,0,0,164.38,140ZM79.22,101.8A13.77,13.77,0,1,0,93,115C92.92,106.36,85.56,101.67,79.22,101.8Zm.45,88.68c2.09-.32,3.82-1.44,5.62-2.41,2.57-1.38,5.15-2.73,7.77-4,1.35-.67,2-.36,2.74,1,.13.25.25.52.36.79,1,2.34,2,4.69,3,7,.46,1.08.95,2.16,1.54,3.49.33-.51.77-.87.74-1.18-.35-3.39-.69-6.79-1.19-10.16-.36-2.42.37-3.65,2.76-4.25A87.76,87.76,0,0,1,127,178.22a62.27,62.27,0,0,1,20,4,2.67,2.67,0,0,1,2,2.81c-.08,2.69-.19,5.38-.27,8.07,0,1,0,2,0,3,.93.29,1.33-.09,1.66-1,1.14-3,2.38-5.89,3.59-8.83.51-1.22,1.36-1.6,2.39-1.13,2.31,1.05,4.65,2,6.92,3.17a2.94,2.94,0,0,0,3.06-.08,23.33,23.33,0,0,0-2.06-2,6.92,6.92,0,0,0-1.67-.7c-8.69-3.74-17.51-7.09-26.85-8.84A65.7,65.7,0,0,0,121,175.58a82.66,82.66,0,0,0-17.73,3,88.07,88.07,0,0,0-21.82,8.48A8.91,8.91,0,0,0,79.49,189,.93.93,0,0,0,79.67,190.48ZM175.29,54.12l-.2-.32a7.55,7.55,0,0,0-1.36.14A33.27,33.27,0,0,0,170.34,55a119.62,119.62,0,0,0-21.09,11.19c-1.64,1.07-3.13,2.36-4.66,3.59a6.51,6.51,0,0,0-.92,1.25,5.5,5.5,0,0,0,1-.07c1-.27,2.08-.49,3.08-.86A110.65,110.65,0,0,0,165,61.55c2.86-1.7,5.59-3.6,8.33-5.48A15.24,15.24,0,0,0,175.29,54.12ZM64,78.93l-.12.37a10.17,10.17,0,0,0,1.28,1c1.5.87,3,1.78,4.55,2.51a121.3,121.3,0,0,0,23,8.32,9.34,9.34,0,0,0,4.47.26,1.23,1.23,0,0,0-.45-.4,21.26,21.26,0,0,0-1.94-1.31,115.17,115.17,0,0,0-26.3-10.08A41.49,41.49,0,0,0,64,78.93Z"/><path class="cls-2" d="M164.38,140a21.89,21.89,0,1,1,21.93-21.28A22,22,0,0,1,164.38,140Zm5.5-8c5.58-1.33,10.29-9.2,9.42-15.72a15,15,0,0,0-29.79.91c-.4,6.6,4.34,14,9.43,14.77a6.76,6.76,0,0,1,1-8.29,6.69,6.69,0,0,1,8.19-.6C170.94,124.9,171.51,127.84,169.88,131.94Z"/><path class="cls-2" d="M79.22,101.8c6.34-.13,13.7,4.56,13.79,13.2a13.8,13.8,0,1,1-13.79-13.2ZM84,122a7.92,7.92,0,0,0,2.93-8.89,8,8,0,0,0-8.08-5.56,8.18,8.18,0,0,0-7.12,6.26c-.68,3.15.73,6.85,3.11,8.11,1.06-3,2.59-4.38,4.8-4.26S83.32,119.27,84,122Z"/><path class="cls-2" d="M79.67,190.48a.93.93,0,0,1-.18-1.48,8.91,8.91,0,0,1,1.92-1.91,88.07,88.07,0,0,1,21.82-8.48,82.66,82.66,0,0,1,17.73-3,65.7,65.7,0,0,1,14.75,1.18c9.34,1.75,18.16,5.1,26.85,8.84a6.92,6.92,0,0,1,1.67.7,23.33,23.33,0,0,1,2.06,2,2.94,2.94,0,0,1-3.06.08c-2.27-1.13-4.61-2.12-6.92-3.17-1-.47-1.88-.09-2.39,1.13-1.21,2.94-2.45,5.87-3.59,8.83-.33.86-.73,1.24-1.66,1,0-1,0-2,0-3,.08-2.69.19-5.38.27-8.07a2.67,2.67,0,0,0-2-2.81,62.27,62.27,0,0,0-20-4A87.76,87.76,0,0,0,103,180.77c-2.39.6-3.12,1.83-2.76,4.25.5,3.37.84,6.77,1.19,10.16,0,.31-.41.67-.74,1.18-.59-1.33-1.08-2.41-1.54-3.49-1-2.34-2-4.69-3-7-.11-.27-.23-.54-.36-.79-.69-1.35-1.39-1.66-2.74-1-2.62,1.28-5.2,2.63-7.77,4C83.49,189,81.76,190.16,79.67,190.48Z"/><path class="cls-2" d="M175.29,54.12a15.24,15.24,0,0,1-2,2c-2.74,1.88-5.47,3.78-8.33,5.48a110.65,110.65,0,0,1-17.2,8.55c-1,.37-2.05.59-3.08.86a5.5,5.5,0,0,1-1,.07,6.51,6.51,0,0,1,.92-1.25c1.53-1.23,3-2.52,4.66-3.59A119.62,119.62,0,0,1,170.34,55a33.27,33.27,0,0,1,3.39-1.06,7.55,7.55,0,0,1,1.36-.14Z"/><path class="cls-2" d="M64,78.93a41.49,41.49,0,0,1,4.49.66,115.17,115.17,0,0,1,26.3,10.08A21.26,21.26,0,0,1,96.69,91a1.23,1.23,0,0,1,.45.4,9.34,9.34,0,0,1-4.47-.26,121.3,121.3,0,0,1-23-8.32c-1.57-.73-3-1.64-4.55-2.51a10.17,10.17,0,0,1-1.28-1Z"/><path class="cls-1" d="M169.88,131.94c1.63-4.1,1.06-7-1.73-8.93a6.69,6.69,0,0,0-8.19.6,6.76,6.76,0,0,0-1,8.29c-5.09-.78-9.83-8.17-9.43-14.77a15,15,0,0,1,29.79-.91C180.17,122.74,175.46,130.61,169.88,131.94Z"/><path class="cls-1" d="M84,122c-.67-2.69-2.23-4.22-4.36-4.34s-3.74,1.24-4.8,4.26c-2.38-1.26-3.79-5-3.11-8.11a8.18,8.18,0,0,1,7.12-6.26,8,8,0,0,1,8.08,5.56A7.92,7.92,0,0,1,84,122Z"/></g></g></svg>