<svg xmlns="http://www.w3.org/2000/svg" viewBox="0 0 30.24 24.25"><defs><style>.cls-1{fill:#fff;}</style></defs><g id="Layer_2" data-name="Layer 2"><g id="Layer_3" data-name="Layer 3"><g id="primary"><path class="cls-1" d="M21.2,24.25a1.43,1.43,0,0,1-1.43-1.07L18.6,19.42a19.59,19.59,0,0,1-3.45.3,19.79,19.79,0,0,1-3.46-.3l-1.17,3.76A1.48,1.48,0,0,1,9,24.25a12.45,12.45,0,0,1-8.59-4,1.58,1.58,0,0,1-.41-1A47.65,47.65,0,0,1,2.85,3.46,2.92,2.92,0,0,1,4.68,1.63c.05,0,.05,0,.1,0A37.5,37.5,0,0,1,15.15,0,37.27,37.27,0,0,1,25.52,1.58h.05A3,3,0,0,1,27.4,3.35a45.27,45.27,0,0,1,2.84,15.76,1.44,1.44,0,0,1-.4,1,12.34,12.34,0,0,1-8.59,4C21.25,24.25,21.2,24.25,21.2,24.25Zm.35-5.54.76,2.38a9.27,9.27,0,0,0,5-2.49A45,45,0,0,0,24.65,4.47,35,35,0,0,0,15.2,3.05,35,35,0,0,0,5.79,4.47,43.39,43.39,0,0,0,3.15,18.6a9.21,9.21,0,0,0,5,2.49l.77-2.38L7.17,18.1a1.52,1.52,0,1,1,1.17-2.8,19.44,19.44,0,0,0,7,1.42,18.38,18.38,0,0,0,7-1.42,1.52,1.52,0,1,1,1.17,2.8C22.72,18.3,22.11,18.55,21.55,18.71Z"/></g><g id="primary-upstroke"><path class="cls-1" d="M19.67,10.62a1.4,1.4,0,0,1-1.07-.45,1.57,1.57,0,0,1-.4-1.07A1.4,1.4,0,0,1,18.65,8a1.57,1.57,0,0,1,2.14,0,1.49,1.49,0,0,1,.46,1.07,1.41,1.41,0,0,1-.46,1.07A1.6,1.6,0,0,1,19.67,10.62Z"/></g><g id="primary-upstroke-2"><path class="cls-1" d="M10.62,10.62a1.38,1.38,0,0,1-1.06-.45A1.45,1.45,0,0,1,9.1,9.1,1.38,1.38,0,0,1,9.56,8a1.56,1.56,0,0,1,2.13,0,1.52,1.52,0,0,1-1.07,2.59Z"/></g></g></g></svg>