<svg xmlns="http://www.w3.org/2000/svg" viewBox="0 0 20 20"><defs><style>.cls-1,.cls-3{fill:#fff;}.cls-2{fill:#ed0049;}.cls-3{stroke:#fff;stroke-miterlimit:10;stroke-width:0.75px;}</style></defs><g id="Layer_2" data-name="Layer 2"><g id="Layer_3" data-name="Layer 3"><path class="cls-1" d="M2.68,3.23V16.76H17V3.23Zm12.57,7.1a.75.75,0,0,1-1.5,0v-3L6,15a.71.71,0,0,1-.53.22A.74.74,0,0,1,5,15,.75.75,0,0,1,5,14l7.72-7.72h-3a.75.75,0,0,1,0-1.5H14.5a.74.74,0,0,1,.75.75Z"/><path class="cls-2" d="M14.19,0H5.82C2.18,0,0,2.17,0,5.81v8.37C0,17.83,2.18,20,5.82,20h8.37C17.83,20,20,17.83,20,14.18V5.81C20,2.17,17.83,0,14.19,0Zm1.06,10.33a.75.75,0,0,1-1.5,0v-3L6,15a.71.71,0,0,1-.53.22A.74.74,0,0,1,5,15,.75.75,0,0,1,5,14l7.72-7.72h-3a.75.75,0,0,1,0-1.5H14.5a.74.74,0,0,1,.75.75Z"/><path class="cls-3" d="M15.25,5.5v4.83a.75.75,0,0,1-1.5,0v-3L6,15a.71.71,0,0,1-.53.22A.74.74,0,0,1,5,15,.75.75,0,0,1,5,14l7.72-7.72h-3a.75.75,0,0,1,0-1.5H14.5A.74.74,0,0,1,15.25,5.5Z"/></g></g></svg>