<svg xmlns="http://www.w3.org/2000/svg" viewBox="0 0 30.29 30.29"><defs><style>.cls-1{fill:#fff;}</style></defs><g id="Layer_2" data-name="Layer 2"><g id="Layer_3" data-name="Layer 3"><g id="primary"><path class="cls-1" d="M27.24,30.29H3.05a3.06,3.06,0,0,1-3-3.05V3.05A3.06,3.06,0,0,1,3.05,0H27.24a3.06,3.06,0,0,1,3.05,3.05V27.24A3.06,3.06,0,0,1,27.24,30.29Zm-9-3.05h9.1V3.05H3.05V27.24h12.1V19.67H12.1a1.53,1.53,0,0,1-1.53-1.52,1.5,1.5,0,0,1,1.53-1.53h3.05V12.1a4.54,4.54,0,0,1,4.52-4.53h3A1.54,1.54,0,0,1,24.25,9.1a1.5,1.5,0,0,1-1.53,1.52h-3a1.53,1.53,0,0,0-1.52,1.53v4.52H21.2a1.53,1.53,0,0,1,1.52,1.53,1.49,1.49,0,0,1-1.52,1.52H18.15v7.52Z"/></g></g></g></svg>