<svg xmlns="http://www.w3.org/2000/svg" viewBox="0 0 14.37 14.37"><defs><style>.cls-1{fill:#fff;}</style></defs><g id="Layer_2" data-name="Layer 2"><g id="Layer_3" data-name="Layer 3"><path class="cls-1" d="M1,14.37a1,1,0,0,1-.73-.3,1,1,0,0,1,0-1.45L12.62.3a1,1,0,0,1,1.45,1.46L1.76,14.07A1,1,0,0,1,1,14.37Z"/><path class="cls-1" d="M13.34,6.17a1,1,0,0,1-1-1V2.06H9.24A1,1,0,1,1,9.24,0h4.1a1,1,0,0,1,1,1v4.1A1,1,0,0,1,13.34,6.17Z"/><path class="cls-1" d="M5.13,14.37H1a1,1,0,0,1-1-1V9.24a1,1,0,0,1,2.06,0v3.07H5.13a1,1,0,1,1,0,2.06Z"/></g></g></svg>