<svg xmlns="http://www.w3.org/2000/svg" viewBox="0 0 30.29 30.29"><defs><style>.cls-1{fill:#fff;}</style></defs><g id="Layer_2" data-name="Layer 2"><g id="Layer_3" data-name="Layer 3"><g id="primary"><path class="cls-1" d="M27.24,30.29H3.05a3.06,3.06,0,0,1-3-3.05V3.05A3.06,3.06,0,0,1,3.05,0H27.24a3.06,3.06,0,0,1,3.05,3.05V27.24A3.06,3.06,0,0,1,27.24,30.29ZM3.05,3.05V27.24H27.24V3.05ZM15.15,21.2a6.05,6.05,0,1,1,6-6A6,6,0,0,1,15.15,21.2Zm0-9.1a3,3,0,1,0,3,3.05A3.06,3.06,0,0,0,15.15,12.1Z"/></g><g id="primary-upstroke"><path class="cls-1" d="M22.72,9.1a1.38,1.38,0,0,1-1.07-.46,1.49,1.49,0,0,1,0-2.13,1.57,1.57,0,0,1,2.14,0,1.47,1.47,0,0,1,.46,1.06,1.4,1.4,0,0,1-.46,1.07A1.45,1.45,0,0,1,22.72,9.1Z"/></g></g></g></svg>