<svg xmlns="http://www.w3.org/2000/svg" viewBox="0 0 37.97 30.31"><defs><style>.cls-1{fill:#fff;}</style></defs><g id="Layer_2" data-name="Layer 2"><g id="Layer_3" data-name="Layer 3"><path class="cls-1" d="M31,.36C27.34.12,23.33,0,19,0S10.91.12,7,.36A7.66,7.66,0,0,0,0,8v14.4a7.64,7.64,0,0,0,7,7.57c3.63.26,7.65.38,12,.38s8.36-.12,12-.38a7.63,7.63,0,0,0,7-7.57V8A7.64,7.64,0,0,0,31,.36Zm3.19,22a3.82,3.82,0,0,1-3.49,3.75c-3.52.26-7.46.39-11.68.39s-8.14-.13-11.65-.39A3.86,3.86,0,0,1,3.84,22.3V7.9A3.77,3.77,0,0,1,7.27,4.14C11,3.88,14.84,3.76,19,3.76s8.16.12,11.68.44A3.76,3.76,0,0,1,34.15,8Z"/><path class="cls-1" d="M13.52,9.26V21.35a1.44,1.44,0,0,0,2.21,1.2l9.39-6a1.43,1.43,0,0,0,0-2.41l-9.39-6A1.44,1.44,0,0,0,13.52,9.26Zm3.7,3,4.48,2.57a.52.52,0,0,1,0,.89l-4.48,2.57a.52.52,0,0,1-.77-.45V12.74A.52.52,0,0,1,17.22,12.29Z"/></g></g></svg>