<svg xmlns="http://www.w3.org/2000/svg" xmlns:xlink="http://www.w3.org/1999/xlink" width="1918" height="1636.08" viewBox="0 0 1918 1636.08">
  <defs>
    <style>
      .cls-1 {
        fill: none;
      }

      .cls-2 {
        clip-path: url(#clip-path);
      }

      .cls-3 {
        fill: url(#linear-gradient);
      }

      .cls-4 {
        opacity: 0.4;
      }
    </style>
    <clipPath id="clip-path">
      <path id="SVGID" class="cls-1" d="M1918,297.66V1604.742s-271,219.238-853,133.892c-503.66-73.86-942.92,96.222-1065,195.106V626.83c31-23.153,303.28-211.76,850-131.59C1357.88,569.719,1800.28,396.153,1918,297.66Z" transform="translate(0 -297.66)"/>
    </clipPath>
    <linearGradient id="linear-gradient" x1="0.041" y1="0.155" x2="0.959" y2="0.845" gradientUnits="objectBoundingBox">
      <stop offset="0" stop-color="#fe1645"/>
      <stop offset="1" stop-color="#4711ef"/>
    </linearGradient>
  </defs>
  <g id="Group_20" data-name="Group 20" transform="translate(0 -297.66)">
    <g id="Group_19" data-name="Group 19" class="cls-2" transform="translate(0 297.66)">
      <path id="Path_7" data-name="Path 7" class="cls-3" d="M1918,297.66V1604.742s-271,219.238-853,133.892c-503.66-73.86-942.92,96.222-1065,195.106V626.83c31-23.153,303.28-211.76,850-131.59C1357.88,569.719,1800.28,396.153,1918,297.66Z" transform="translate(0 -297.66)"/>
      <rect id="Rectangle_4" data-name="Rectangle 4" class="cls-4" width="2913" height="1840.034" transform="translate(-692 -114.051)"/>
    </g>
  </g>
</svg>
