<svg xmlns="http://www.w3.org/2000/svg" width="31.231" height="31.231" viewBox="0 0 31.231 31.231">
  <defs>
    <style>
      .cls-1 {
        fill: #fff;
      }
    </style>
  </defs>
  <path id="Icon_awesome-facebook-square" data-name="Icon awesome-facebook-square" class="cls-1" d="M27.885,2.25H3.346A3.346,3.346,0,0,0,0,5.6V30.135a3.346,3.346,0,0,0,3.346,3.346h9.568V22.863H8.522v-5h4.392V14.056c0-4.333,2.579-6.726,6.53-6.726a26.606,26.606,0,0,1,3.87.337V11.92h-2.18a2.5,2.5,0,0,0-2.818,2.7v3.245h4.795l-.767,5H18.317V33.481h9.568a3.346,3.346,0,0,0,3.346-3.346V5.6A3.346,3.346,0,0,0,27.885,2.25Z" transform="translate(0 -2.25)"/>
</svg>
