<svg xmlns="http://www.w3.org/2000/svg" xmlns:xlink="http://www.w3.org/1999/xlink" width="208.521" height="309.677" viewBox="0 0 208.521 309.677">
  <defs>
    <style>
      .cls-1 {
        fill: url(#linear-gradient);
      }
    </style>
    <linearGradient id="linear-gradient" y1="0.5" x2="1" y2="0.5" gradientUnits="objectBoundingBox">
      <stop offset="0" stop-color="#fe1645"/>
      <stop offset="1" stop-color="#4711ef"/>
    </linearGradient>
  </defs>
  <g id="Group_107" data-name="Group 107" transform="translate(-888.5 -4196.04)">
    <g id="Group_102" data-name="Group 102" transform="translate(97.954 3532.581) rotate(90)">
      <path id="Path_302" data-name="Path 302" class="cls-1" d="M805.615-813.94a7.761,7.761,0,0,0-7.761-7.761H792.06a7.761,7.761,0,0,0-7.761,7.761v5.795a7.761,7.761,0,0,0,7.761,7.761h5.795a7.761,7.761,0,0,0,7.761-7.761Zm-7.407,23.394h-6.5a17.247,17.247,0,0,1-17.246-17.246v-6.5a17.247,17.247,0,0,1,17.246-17.246h6.5a17.247,17.247,0,0,1,17.246,17.246v6.5A17.247,17.247,0,0,1,798.208-790.546Z" transform="translate(0)"/>
      <path id="Path_303" data-name="Path 303" class="cls-1" d="M874.856-813.94A7.761,7.761,0,0,0,867.1-821.7H861.3a7.761,7.761,0,0,0-7.761,7.761v5.795a7.761,7.761,0,0,0,7.761,7.761H867.1a7.761,7.761,0,0,0,7.761-7.761Zm-7.407,23.394h-6.5A17.247,17.247,0,0,1,843.7-807.792v-6.5a17.247,17.247,0,0,1,17.246-17.246h6.5a17.247,17.247,0,0,1,17.246,17.246v6.5A17.247,17.247,0,0,1,867.449-790.546Z" transform="translate(-39.387)"/>
      <path id="Path_304" data-name="Path 304" class="cls-1" d="M944.1-813.94a7.761,7.761,0,0,0-7.761-7.761h-5.795a7.761,7.761,0,0,0-7.761,7.761v5.795a7.761,7.761,0,0,0,7.761,7.761h5.795a7.761,7.761,0,0,0,7.761-7.761Zm-7.407,23.394h-6.5a17.247,17.247,0,0,1-17.246-17.246v-6.5a17.247,17.247,0,0,1,17.246-17.246h6.5a17.247,17.247,0,0,1,17.246,17.246v6.5A17.247,17.247,0,0,1,936.691-790.546Z" transform="translate(-78.775)"/>
      <path id="Path_305" data-name="Path 305" class="cls-1" d="M1013.339-813.94a7.761,7.761,0,0,0-7.761-7.761h-5.795a7.761,7.761,0,0,0-7.761,7.761v5.795a7.761,7.761,0,0,0,7.761,7.761h5.795a7.761,7.761,0,0,0,7.761-7.761Zm-7.407,23.394h-6.5a17.247,17.247,0,0,1-17.246-17.246v-6.5A17.247,17.247,0,0,1,999.43-831.54h6.5a17.247,17.247,0,0,1,17.246,17.246v6.5A17.247,17.247,0,0,1,1005.932-790.546Z" transform="translate(-118.163)"/>
      <path id="Path_306" data-name="Path 306" class="cls-1" d="M1082.581-813.94a7.761,7.761,0,0,0-7.761-7.761h-5.795a7.761,7.761,0,0,0-7.761,7.761v5.795a7.761,7.761,0,0,0,7.761,7.761h5.795a7.761,7.761,0,0,0,7.761-7.761Zm-7.408,23.394h-6.5a17.247,17.247,0,0,1-17.246-17.246v-6.5a17.247,17.247,0,0,1,17.246-17.246h6.5a17.247,17.247,0,0,1,17.246,17.246v6.5A17.247,17.247,0,0,1,1075.174-790.546Z" transform="translate(-157.551)"/>
    </g>
    <g id="Group_104" data-name="Group 104" transform="translate(153.796 3421.581) rotate(90)">
      <path id="Path_302-2" data-name="Path 302" class="cls-1" d="M805.615-813.94a7.761,7.761,0,0,0-7.761-7.761H792.06a7.761,7.761,0,0,0-7.761,7.761v5.795a7.761,7.761,0,0,0,7.761,7.761h5.795a7.761,7.761,0,0,0,7.761-7.761Zm-7.407,23.394h-6.5a17.247,17.247,0,0,1-17.246-17.246v-6.5a17.247,17.247,0,0,1,17.246-17.246h6.5a17.247,17.247,0,0,1,17.246,17.246v6.5A17.247,17.247,0,0,1,798.208-790.546Z" transform="translate(0)"/>
      <path id="Path_303-2" data-name="Path 303" class="cls-1" d="M874.856-813.94A7.761,7.761,0,0,0,867.1-821.7H861.3a7.761,7.761,0,0,0-7.761,7.761v5.795a7.761,7.761,0,0,0,7.761,7.761H867.1a7.761,7.761,0,0,0,7.761-7.761Zm-7.407,23.394h-6.5A17.247,17.247,0,0,1,843.7-807.792v-6.5a17.247,17.247,0,0,1,17.246-17.246h6.5a17.247,17.247,0,0,1,17.246,17.246v6.5A17.247,17.247,0,0,1,867.449-790.546Z" transform="translate(-39.387)"/>
      <path id="Path_304-2" data-name="Path 304" class="cls-1" d="M944.1-813.94a7.761,7.761,0,0,0-7.761-7.761h-5.795a7.761,7.761,0,0,0-7.761,7.761v5.795a7.761,7.761,0,0,0,7.761,7.761h5.795a7.761,7.761,0,0,0,7.761-7.761Zm-7.407,23.394h-6.5a17.247,17.247,0,0,1-17.246-17.246v-6.5a17.247,17.247,0,0,1,17.246-17.246h6.5a17.247,17.247,0,0,1,17.246,17.246v6.5A17.247,17.247,0,0,1,936.691-790.546Z" transform="translate(-78.775)"/>
      <path id="Path_305-2" data-name="Path 305" class="cls-1" d="M1013.339-813.94a7.761,7.761,0,0,0-7.761-7.761h-5.795a7.761,7.761,0,0,0-7.761,7.761v5.795a7.761,7.761,0,0,0,7.761,7.761h5.795a7.761,7.761,0,0,0,7.761-7.761Zm-7.407,23.394h-6.5a17.247,17.247,0,0,1-17.246-17.246v-6.5A17.247,17.247,0,0,1,999.43-831.54h6.5a17.247,17.247,0,0,1,17.246,17.246v6.5A17.247,17.247,0,0,1,1005.932-790.546Z" transform="translate(-118.163)"/>
      <path id="Path_306-2" data-name="Path 306" class="cls-1" d="M1082.581-813.94a7.761,7.761,0,0,0-7.761-7.761h-5.795a7.761,7.761,0,0,0-7.761,7.761v5.795a7.761,7.761,0,0,0,7.761,7.761h5.795a7.761,7.761,0,0,0,7.761-7.761Zm-7.408,23.394h-6.5a17.247,17.247,0,0,1-17.246-17.246v-6.5a17.247,17.247,0,0,1,17.246-17.246h6.5a17.247,17.247,0,0,1,17.246,17.246v6.5A17.247,17.247,0,0,1,1075.174-790.546Z" transform="translate(-157.551)"/>
      <path id="Path_307" data-name="Path 307" class="cls-1" d="M1151.822-813.94a7.761,7.761,0,0,0-7.761-7.761h-5.795a7.761,7.761,0,0,0-7.761,7.761v5.795a7.761,7.761,0,0,0,7.761,7.761h5.795a7.761,7.761,0,0,0,7.761-7.761Zm-7.407,23.394h-6.5a17.247,17.247,0,0,1-17.246-17.246v-6.5a17.247,17.247,0,0,1,17.246-17.246h6.5a17.247,17.247,0,0,1,17.246,17.246v6.5A17.247,17.247,0,0,1,1144.415-790.546Z" transform="translate(-196.939)"/>
      <path id="Path_308" data-name="Path 308" class="cls-1" d="M1221.063-813.94a7.761,7.761,0,0,0-7.761-7.761h-5.795a7.761,7.761,0,0,0-7.76,7.761v5.795a7.761,7.761,0,0,0,7.76,7.761h5.795a7.762,7.762,0,0,0,7.761-7.761Zm-7.407,23.394h-6.5a17.247,17.247,0,0,1-17.246-17.246v-6.5a17.247,17.247,0,0,1,17.246-17.246h6.5a17.247,17.247,0,0,1,17.246,17.246v6.5A17.247,17.247,0,0,1,1213.656-790.546Z" transform="translate(-236.326)"/>
      <path id="Path_309" data-name="Path 309" class="cls-1" d="M1290.305-813.94a7.761,7.761,0,0,0-7.761-7.761h-5.795a7.761,7.761,0,0,0-7.761,7.761v5.795a7.762,7.762,0,0,0,7.761,7.761h5.795a7.761,7.761,0,0,0,7.761-7.761Zm-7.407,23.394h-6.5a17.247,17.247,0,0,1-17.246-17.246v-6.5A17.247,17.247,0,0,1,1276.4-831.54h6.5a17.247,17.247,0,0,1,17.246,17.246v6.5A17.247,17.247,0,0,1,1282.9-790.546Z" transform="translate(-275.714)"/>
      <path id="Path_310" data-name="Path 310" class="cls-1" d="M1359.546-813.94a7.761,7.761,0,0,0-7.761-7.761h-5.795a7.761,7.761,0,0,0-7.761,7.761v5.795a7.761,7.761,0,0,0,7.761,7.761h5.795a7.761,7.761,0,0,0,7.761-7.761Zm-7.407,23.394h-6.5a17.247,17.247,0,0,1-17.246-17.246v-6.5a17.247,17.247,0,0,1,17.246-17.246h6.5a17.247,17.247,0,0,1,17.246,17.246v6.5A17.247,17.247,0,0,1,1352.139-790.546Z" transform="translate(-315.102)"/>
      <path id="Path_311" data-name="Path 311" class="cls-1" d="M1428.787-813.94a7.761,7.761,0,0,0-7.761-7.761h-5.795a7.761,7.761,0,0,0-7.761,7.761v5.795a7.761,7.761,0,0,0,7.761,7.761h5.795a7.762,7.762,0,0,0,7.761-7.761Zm-7.407,23.394h-6.5a17.247,17.247,0,0,1-17.246-17.246v-6.5a17.247,17.247,0,0,1,17.246-17.246h6.5a17.247,17.247,0,0,1,17.246,17.246v6.5A17.247,17.247,0,0,1,1421.38-790.546Z" transform="translate(-354.489)"/>
    </g>
    <g id="Group_105" data-name="Group 105" transform="translate(209.639 3485.581) rotate(90)">
      <path id="Path_302-3" data-name="Path 302" class="cls-1" d="M805.615-813.94a7.761,7.761,0,0,0-7.761-7.761H792.06a7.761,7.761,0,0,0-7.761,7.761v5.795a7.761,7.761,0,0,0,7.761,7.761h5.795a7.761,7.761,0,0,0,7.761-7.761Zm-7.407,23.394h-6.5a17.247,17.247,0,0,1-17.246-17.246v-6.5a17.247,17.247,0,0,1,17.246-17.246h6.5a17.247,17.247,0,0,1,17.246,17.246v6.5A17.247,17.247,0,0,1,798.208-790.546Z" transform="translate(0)"/>
      <path id="Path_303-3" data-name="Path 303" class="cls-1" d="M874.856-813.94A7.761,7.761,0,0,0,867.1-821.7H861.3a7.761,7.761,0,0,0-7.761,7.761v5.795a7.761,7.761,0,0,0,7.761,7.761H867.1a7.761,7.761,0,0,0,7.761-7.761Zm-7.407,23.394h-6.5A17.247,17.247,0,0,1,843.7-807.792v-6.5a17.247,17.247,0,0,1,17.246-17.246h6.5a17.247,17.247,0,0,1,17.246,17.246v6.5A17.247,17.247,0,0,1,867.449-790.546Z" transform="translate(-39.387)"/>
      <path id="Path_304-3" data-name="Path 304" class="cls-1" d="M944.1-813.94a7.761,7.761,0,0,0-7.761-7.761h-5.795a7.761,7.761,0,0,0-7.761,7.761v5.795a7.761,7.761,0,0,0,7.761,7.761h5.795a7.761,7.761,0,0,0,7.761-7.761Zm-7.407,23.394h-6.5a17.247,17.247,0,0,1-17.246-17.246v-6.5a17.247,17.247,0,0,1,17.246-17.246h6.5a17.247,17.247,0,0,1,17.246,17.246v6.5A17.247,17.247,0,0,1,936.691-790.546Z" transform="translate(-78.775)"/>
      <path id="Path_305-3" data-name="Path 305" class="cls-1" d="M1013.339-813.94a7.761,7.761,0,0,0-7.761-7.761h-5.795a7.761,7.761,0,0,0-7.761,7.761v5.795a7.761,7.761,0,0,0,7.761,7.761h5.795a7.761,7.761,0,0,0,7.761-7.761Zm-7.407,23.394h-6.5a17.247,17.247,0,0,1-17.246-17.246v-6.5A17.247,17.247,0,0,1,999.43-831.54h6.5a17.247,17.247,0,0,1,17.246,17.246v6.5A17.247,17.247,0,0,1,1005.932-790.546Z" transform="translate(-118.163)"/>
      <path id="Path_306-3" data-name="Path 306" class="cls-1" d="M1082.581-813.94a7.761,7.761,0,0,0-7.761-7.761h-5.795a7.761,7.761,0,0,0-7.761,7.761v5.795a7.761,7.761,0,0,0,7.761,7.761h5.795a7.761,7.761,0,0,0,7.761-7.761Zm-7.408,23.394h-6.5a17.247,17.247,0,0,1-17.246-17.246v-6.5a17.247,17.247,0,0,1,17.246-17.246h6.5a17.247,17.247,0,0,1,17.246,17.246v6.5A17.247,17.247,0,0,1,1075.174-790.546Z" transform="translate(-157.551)"/>
    </g>
    <g id="Group_106" data-name="Group 106" transform="translate(265.481 3452.581) rotate(90)">
      <path id="Path_302-4" data-name="Path 302" class="cls-1" d="M805.615-813.94a7.761,7.761,0,0,0-7.761-7.761H792.06a7.761,7.761,0,0,0-7.761,7.761v5.795a7.761,7.761,0,0,0,7.761,7.761h5.795a7.761,7.761,0,0,0,7.761-7.761Zm-7.407,23.394h-6.5a17.247,17.247,0,0,1-17.246-17.246v-6.5a17.247,17.247,0,0,1,17.246-17.246h6.5a17.247,17.247,0,0,1,17.246,17.246v6.5A17.247,17.247,0,0,1,798.208-790.546Z" transform="translate(0)"/>
      <path id="Path_303-4" data-name="Path 303" class="cls-1" d="M874.856-813.94A7.761,7.761,0,0,0,867.1-821.7H861.3a7.761,7.761,0,0,0-7.761,7.761v5.795a7.761,7.761,0,0,0,7.761,7.761H867.1a7.761,7.761,0,0,0,7.761-7.761Zm-7.407,23.394h-6.5A17.247,17.247,0,0,1,843.7-807.792v-6.5a17.247,17.247,0,0,1,17.246-17.246h6.5a17.247,17.247,0,0,1,17.246,17.246v6.5A17.247,17.247,0,0,1,867.449-790.546Z" transform="translate(-39.387)"/>
      <path id="Path_304-4" data-name="Path 304" class="cls-1" d="M944.1-813.94a7.761,7.761,0,0,0-7.761-7.761h-5.795a7.761,7.761,0,0,0-7.761,7.761v5.795a7.761,7.761,0,0,0,7.761,7.761h5.795a7.761,7.761,0,0,0,7.761-7.761Zm-7.407,23.394h-6.5a17.247,17.247,0,0,1-17.246-17.246v-6.5a17.247,17.247,0,0,1,17.246-17.246h6.5a17.247,17.247,0,0,1,17.246,17.246v6.5A17.247,17.247,0,0,1,936.691-790.546Z" transform="translate(-78.775)"/>
      <path id="Path_305-4" data-name="Path 305" class="cls-1" d="M1013.339-813.94a7.761,7.761,0,0,0-7.761-7.761h-5.795a7.761,7.761,0,0,0-7.761,7.761v5.795a7.761,7.761,0,0,0,7.761,7.761h5.795a7.761,7.761,0,0,0,7.761-7.761Zm-7.407,23.394h-6.5a17.247,17.247,0,0,1-17.246-17.246v-6.5A17.247,17.247,0,0,1,999.43-831.54h6.5a17.247,17.247,0,0,1,17.246,17.246v6.5A17.247,17.247,0,0,1,1005.932-790.546Z" transform="translate(-118.163)"/>
      <path id="Path_306-4" data-name="Path 306" class="cls-1" d="M1082.581-813.94a7.761,7.761,0,0,0-7.761-7.761h-5.795a7.761,7.761,0,0,0-7.761,7.761v5.795a7.761,7.761,0,0,0,7.761,7.761h5.795a7.761,7.761,0,0,0,7.761-7.761Zm-7.408,23.394h-6.5a17.247,17.247,0,0,1-17.246-17.246v-6.5a17.247,17.247,0,0,1,17.246-17.246h6.5a17.247,17.247,0,0,1,17.246,17.246v6.5A17.247,17.247,0,0,1,1075.174-790.546Z" transform="translate(-157.551)"/>
      <path id="Path_307-2" data-name="Path 307" class="cls-1" d="M1151.822-813.94a7.761,7.761,0,0,0-7.761-7.761h-5.795a7.761,7.761,0,0,0-7.761,7.761v5.795a7.761,7.761,0,0,0,7.761,7.761h5.795a7.761,7.761,0,0,0,7.761-7.761Zm-7.407,23.394h-6.5a17.247,17.247,0,0,1-17.246-17.246v-6.5a17.247,17.247,0,0,1,17.246-17.246h6.5a17.247,17.247,0,0,1,17.246,17.246v6.5A17.247,17.247,0,0,1,1144.415-790.546Z" transform="translate(-196.939)"/>
      <path id="Path_308-2" data-name="Path 308" class="cls-1" d="M1221.063-813.94a7.761,7.761,0,0,0-7.761-7.761h-5.795a7.761,7.761,0,0,0-7.76,7.761v5.795a7.761,7.761,0,0,0,7.76,7.761h5.795a7.762,7.762,0,0,0,7.761-7.761Zm-7.407,23.394h-6.5a17.247,17.247,0,0,1-17.246-17.246v-6.5a17.247,17.247,0,0,1,17.246-17.246h6.5a17.247,17.247,0,0,1,17.246,17.246v6.5A17.247,17.247,0,0,1,1213.656-790.546Z" transform="translate(-236.326)"/>
      <path id="Path_309-2" data-name="Path 309" class="cls-1" d="M1290.305-813.94a7.761,7.761,0,0,0-7.761-7.761h-5.795a7.761,7.761,0,0,0-7.761,7.761v5.795a7.762,7.762,0,0,0,7.761,7.761h5.795a7.761,7.761,0,0,0,7.761-7.761Zm-7.407,23.394h-6.5a17.247,17.247,0,0,1-17.246-17.246v-6.5A17.247,17.247,0,0,1,1276.4-831.54h6.5a17.247,17.247,0,0,1,17.246,17.246v6.5A17.247,17.247,0,0,1,1282.9-790.546Z" transform="translate(-275.714)"/>
    </g>
  </g>
</svg>
