<svg xmlns="http://www.w3.org/2000/svg" xmlns:xlink="http://www.w3.org/1999/xlink" width="1920" height="1785" viewBox="0 0 1920 1785">
  <defs>
    <style>
      .cls-1 {
        fill: #3714a4;
      }

      .cls-2 {
        clip-path: url(#clip-path);
      }

      .cls-3 {
        fill: url(#linear-gradient);
      }

      .cls-4 {
        fill: url(#linear-gradient-2);
      }

      .cls-5 {
        fill: url(#linear-gradient-3);
      }

      .cls-6 {
        fill: url(#linear-gradient-4);
      }

      .cls-7 {
        fill: url(#linear-gradient-5);
      }

      .cls-8 {
        fill: url(#linear-gradient-6);
      }

      .cls-9 {
        fill: url(#linear-gradient-7);
      }

      .cls-10 {
        fill: url(#linear-gradient-8);
      }

      .cls-11 {
        fill: url(#linear-gradient-9);
      }

      .cls-12 {
        fill: url(#linear-gradient-10);
      }

      .cls-13 {
        fill: url(#linear-gradient-11);
      }

      .cls-14 {
        fill: url(#linear-gradient-12);
      }

      .cls-15 {
        fill: url(#linear-gradient-13);
      }

      .cls-16 {
        fill: url(#linear-gradient-14);
      }

      .cls-17 {
        fill: url(#linear-gradient-15);
      }

      .cls-18 {
        fill: url(#linear-gradient-16);
      }

      .cls-19 {
        fill: url(#linear-gradient-17);
      }

      .cls-20 {
        fill: url(#linear-gradient-18);
      }

      .cls-21 {
        fill: url(#linear-gradient-19);
      }

      .cls-22 {
        fill: url(#linear-gradient-20);
      }

      .cls-23 {
        fill: url(#linear-gradient-21);
      }

      .cls-24 {
        fill: url(#linear-gradient-22);
      }

      .cls-25 {
        fill: url(#linear-gradient-23);
      }

      .cls-26 {
        fill: url(#linear-gradient-24);
      }

      .cls-27 {
        fill: url(#linear-gradient-25);
      }

      .cls-28 {
        fill: url(#linear-gradient-26);
      }

      .cls-29 {
        fill: url(#linear-gradient-27);
      }

      .cls-30 {
        fill: url(#linear-gradient-28);
      }

      .cls-31 {
        fill: url(#linear-gradient-29);
      }

      .cls-32 {
        fill: url(#linear-gradient-30);
      }

      .cls-33 {
        fill: url(#linear-gradient-31);
      }

      .cls-34 {
        fill: url(#linear-gradient-32);
      }

      .cls-35 {
        fill: url(#linear-gradient-33);
      }

      .cls-36 {
        fill: url(#linear-gradient-34);
      }

      .cls-37 {
        fill: url(#linear-gradient-35);
      }

      .cls-38 {
        fill: url(#linear-gradient-36);
      }

      .cls-39 {
        fill: url(#linear-gradient-37);
      }

      .cls-40 {
        fill: url(#linear-gradient-38);
      }

      .cls-41 {
        fill: url(#linear-gradient-39);
      }

      .cls-42 {
        fill: url(#linear-gradient-40);
      }

      .cls-43 {
        fill: url(#linear-gradient-41);
      }

      .cls-44 {
        fill: url(#linear-gradient-42);
      }

      .cls-45 {
        fill: url(#linear-gradient-43);
      }

      .cls-46 {
        fill: url(#linear-gradient-44);
      }
    </style>
    <clipPath id="clip-path">
      <rect id="Rectangle_48" data-name="Rectangle 48" class="cls-1" width="1920" height="1785" transform="translate(0 2786)"/>
    </clipPath>
    <linearGradient id="linear-gradient" x1="0.009" y1="0.5" x2="0.991" y2="0.5" gradientUnits="objectBoundingBox">
      <stop offset="0" stop-color="#ff226c"/>
      <stop offset="1" stop-color="#4711ef"/>
    </linearGradient>
    <linearGradient id="linear-gradient-2" y1="0.5" x2="1" y2="0.5" gradientUnits="objectBoundingBox">
      <stop offset="0" stop-color="#ff226b"/>
      <stop offset="1" stop-color="#4711ef"/>
    </linearGradient>
    <linearGradient id="linear-gradient-3" y1="0.5" x2="1" y2="0.5" gradientUnits="objectBoundingBox">
      <stop offset="0" stop-color="#ff216a"/>
      <stop offset="1" stop-color="#4711ef"/>
    </linearGradient>
    <linearGradient id="linear-gradient-4" y1="0.5" x2="1" y2="0.5" gradientUnits="objectBoundingBox">
      <stop offset="0" stop-color="#ff2169"/>
      <stop offset="1" stop-color="#4711ef"/>
    </linearGradient>
    <linearGradient id="linear-gradient-5" y1="0.5" x2="1" y2="0.5" gradientUnits="objectBoundingBox">
      <stop offset="0" stop-color="#ff2168"/>
      <stop offset="1" stop-color="#4711ef"/>
    </linearGradient>
    <linearGradient id="linear-gradient-6" y1="0.5" x2="1" y2="0.5" gradientUnits="objectBoundingBox">
      <stop offset="0" stop-color="#ff2167"/>
      <stop offset="1" stop-color="#4711ef"/>
    </linearGradient>
    <linearGradient id="linear-gradient-7" y1="0.5" x2="1" y2="0.5" gradientUnits="objectBoundingBox">
      <stop offset="0" stop-color="#ff2067"/>
      <stop offset="1" stop-color="#4711ef"/>
    </linearGradient>
    <linearGradient id="linear-gradient-8" y1="0.5" x2="1" y2="0.5" gradientUnits="objectBoundingBox">
      <stop offset="0" stop-color="#ff2066"/>
      <stop offset="1" stop-color="#4711ef"/>
    </linearGradient>
    <linearGradient id="linear-gradient-9" y1="0.5" x2="1" y2="0.5" gradientUnits="objectBoundingBox">
      <stop offset="0" stop-color="#ff2065"/>
      <stop offset="1" stop-color="#4711ef"/>
    </linearGradient>
    <linearGradient id="linear-gradient-10" y1="0.5" x2="1" y2="0.5" gradientUnits="objectBoundingBox">
      <stop offset="0" stop-color="#ff1f64"/>
      <stop offset="1" stop-color="#4711ef"/>
    </linearGradient>
    <linearGradient id="linear-gradient-11" y1="0.5" x2="1" y2="0.5" gradientUnits="objectBoundingBox">
      <stop offset="0" stop-color="#ff1f63"/>
      <stop offset="1" stop-color="#4711ef"/>
    </linearGradient>
    <linearGradient id="linear-gradient-12" y1="0.5" x2="1" y2="0.5" gradientUnits="objectBoundingBox">
      <stop offset="0" stop-color="#ff1f62"/>
      <stop offset="1" stop-color="#4711ef"/>
    </linearGradient>
    <linearGradient id="linear-gradient-13" y1="0.5" x2="1" y2="0.5" gradientUnits="objectBoundingBox">
      <stop offset="0" stop-color="#ff1f61"/>
      <stop offset="1" stop-color="#4711ef"/>
    </linearGradient>
    <linearGradient id="linear-gradient-14" y1="0.5" x2="1" y2="0.5" gradientUnits="objectBoundingBox">
      <stop offset="0" stop-color="#ff1e60"/>
      <stop offset="1" stop-color="#4711ef"/>
    </linearGradient>
    <linearGradient id="linear-gradient-15" y1="0.5" x2="1" y2="0.5" gradientUnits="objectBoundingBox">
      <stop offset="0" stop-color="#ff1e5f"/>
      <stop offset="1" stop-color="#4711ef"/>
    </linearGradient>
    <linearGradient id="linear-gradient-16" y1="0.5" x2="1" y2="0.5" gradientUnits="objectBoundingBox">
      <stop offset="0" stop-color="#ff1e5e"/>
      <stop offset="1" stop-color="#4711ef"/>
    </linearGradient>
    <linearGradient id="linear-gradient-17" y1="0.5" x2="1" y2="0.5" gradientUnits="objectBoundingBox">
      <stop offset="0" stop-color="#ff1e5d"/>
      <stop offset="1" stop-color="#4711ef"/>
    </linearGradient>
    <linearGradient id="linear-gradient-18" y1="0.5" x2="1" y2="0.5" gradientUnits="objectBoundingBox">
      <stop offset="0" stop-color="#ff1d5d"/>
      <stop offset="1" stop-color="#4711ef"/>
    </linearGradient>
    <linearGradient id="linear-gradient-19" y1="0.5" x2="1" y2="0.5" gradientUnits="objectBoundingBox">
      <stop offset="0" stop-color="#ff1d5c"/>
      <stop offset="1" stop-color="#4711ef"/>
    </linearGradient>
    <linearGradient id="linear-gradient-20" y1="0.5" x2="1" y2="0.5" gradientUnits="objectBoundingBox">
      <stop offset="0" stop-color="#ff1d5b"/>
      <stop offset="1" stop-color="#4711ef"/>
    </linearGradient>
    <linearGradient id="linear-gradient-21" y1="0.5" x2="1" y2="0.5" gradientUnits="objectBoundingBox">
      <stop offset="0" stop-color="#ff1c5a"/>
      <stop offset="1" stop-color="#4711ef"/>
    </linearGradient>
    <linearGradient id="linear-gradient-22" y1="0.5" x2="1" y2="0.5" gradientUnits="objectBoundingBox">
      <stop offset="0" stop-color="#ff1c59"/>
      <stop offset="1" stop-color="#4711ef"/>
    </linearGradient>
    <linearGradient id="linear-gradient-23" y1="0.5" x2="1" y2="0.5" gradientUnits="objectBoundingBox">
      <stop offset="0" stop-color="#fe1c58"/>
      <stop offset="1" stop-color="#4711ef"/>
    </linearGradient>
    <linearGradient id="linear-gradient-24" y1="0.5" x2="1" y2="0.5" gradientUnits="objectBoundingBox">
      <stop offset="0" stop-color="#fe1c57"/>
      <stop offset="1" stop-color="#4711ef"/>
    </linearGradient>
    <linearGradient id="linear-gradient-25" y1="0.5" x2="1" y2="0.5" gradientUnits="objectBoundingBox">
      <stop offset="0" stop-color="#fe1b56"/>
      <stop offset="1" stop-color="#4711ef"/>
    </linearGradient>
    <linearGradient id="linear-gradient-26" y1="0.5" x2="1" y2="0.5" gradientUnits="objectBoundingBox">
      <stop offset="0" stop-color="#fe1b55"/>
      <stop offset="1" stop-color="#4711ef"/>
    </linearGradient>
    <linearGradient id="linear-gradient-27" y1="0.5" x2="1" y2="0.5" gradientUnits="objectBoundingBox">
      <stop offset="0" stop-color="#fe1b54"/>
      <stop offset="1" stop-color="#4711ef"/>
    </linearGradient>
    <linearGradient id="linear-gradient-28" y1="0.5" x2="1" y2="0.5" gradientUnits="objectBoundingBox">
      <stop offset="0" stop-color="#fe1a54"/>
      <stop offset="1" stop-color="#4711ef"/>
    </linearGradient>
    <linearGradient id="linear-gradient-29" y1="0.5" x2="1" y2="0.5" gradientUnits="objectBoundingBox">
      <stop offset="0" stop-color="#fe1a53"/>
      <stop offset="1" stop-color="#4711ef"/>
    </linearGradient>
    <linearGradient id="linear-gradient-30" y1="0.5" x2="1" y2="0.5" gradientUnits="objectBoundingBox">
      <stop offset="0" stop-color="#fe1a52"/>
      <stop offset="1" stop-color="#4711ef"/>
    </linearGradient>
    <linearGradient id="linear-gradient-31" y1="0.5" x2="1" y2="0.5" gradientUnits="objectBoundingBox">
      <stop offset="0" stop-color="#fe1a51"/>
      <stop offset="1" stop-color="#4711ef"/>
    </linearGradient>
    <linearGradient id="linear-gradient-32" y1="0.5" x2="1" y2="0.5" gradientUnits="objectBoundingBox">
      <stop offset="0" stop-color="#fe1950"/>
      <stop offset="1" stop-color="#4711ef"/>
    </linearGradient>
    <linearGradient id="linear-gradient-33" y1="0.5" x2="1" y2="0.5" gradientUnits="objectBoundingBox">
      <stop offset="0" stop-color="#fe194f"/>
      <stop offset="1" stop-color="#4711ef"/>
    </linearGradient>
    <linearGradient id="linear-gradient-34" y1="0.5" x2="1" y2="0.5" gradientUnits="objectBoundingBox">
      <stop offset="0" stop-color="#fe194e"/>
      <stop offset="1" stop-color="#4711ef"/>
    </linearGradient>
    <linearGradient id="linear-gradient-35" y1="0.5" x2="1" y2="0.5" gradientUnits="objectBoundingBox">
      <stop offset="0" stop-color="#fe194d"/>
      <stop offset="1" stop-color="#4711ef"/>
    </linearGradient>
    <linearGradient id="linear-gradient-36" y1="0.5" x2="1" y2="0.5" gradientUnits="objectBoundingBox">
      <stop offset="0" stop-color="#fe184c"/>
      <stop offset="1" stop-color="#4711ef"/>
    </linearGradient>
    <linearGradient id="linear-gradient-37" y1="0.5" x2="1" y2="0.5" gradientUnits="objectBoundingBox">
      <stop offset="0" stop-color="#fe184b"/>
      <stop offset="1" stop-color="#4711ef"/>
    </linearGradient>
    <linearGradient id="linear-gradient-38" y1="0.5" x2="1" y2="0.5" gradientUnits="objectBoundingBox">
      <stop offset="0" stop-color="#fe184a"/>
      <stop offset="1" stop-color="#4711ef"/>
    </linearGradient>
    <linearGradient id="linear-gradient-39" y1="0.5" x2="1" y2="0.5" gradientUnits="objectBoundingBox">
      <stop offset="0" stop-color="#fe174a"/>
      <stop offset="1" stop-color="#4711ef"/>
    </linearGradient>
    <linearGradient id="linear-gradient-40" y1="0.5" x2="1" y2="0.5" gradientUnits="objectBoundingBox">
      <stop offset="0" stop-color="#fe1749"/>
      <stop offset="1" stop-color="#4711ef"/>
    </linearGradient>
    <linearGradient id="linear-gradient-41" y1="0.5" x2="1" y2="0.5" gradientUnits="objectBoundingBox">
      <stop offset="0" stop-color="#fe1748"/>
      <stop offset="1" stop-color="#4711ef"/>
    </linearGradient>
    <linearGradient id="linear-gradient-42" y1="0.5" x2="1" y2="0.5" gradientUnits="objectBoundingBox">
      <stop offset="0" stop-color="#fe1747"/>
      <stop offset="1" stop-color="#4711ef"/>
    </linearGradient>
    <linearGradient id="linear-gradient-43" y1="0.5" x2="1" y2="0.5" gradientUnits="objectBoundingBox">
      <stop offset="0" stop-color="#fe1646"/>
      <stop offset="1" stop-color="#4711ef"/>
    </linearGradient>
    <linearGradient id="linear-gradient-44" y1="0.5" x2="1" y2="0.5" gradientUnits="objectBoundingBox">
      <stop offset="0" stop-color="#fe1645"/>
      <stop offset="1" stop-color="#4711ef"/>
    </linearGradient>
  </defs>
  <g id="Mask_Group_4" data-name="Mask Group 4" class="cls-2" transform="translate(0 -2786)">
    <g id="Group_100" data-name="Group 100" transform="translate(-187.003 3466.611) rotate(-11)">
      <path id="Path_258" data-name="Path 258" class="cls-3" d="M-82.018-28.561A18,18,0,0,1-62.01-44.3l13.345,1.594A18,18,0,0,1-32.927-22.7L-34.521-9.352A18,18,0,0,1-54.529,6.386L-67.874,4.792A18,18,0,0,1-83.612-15.216Zm10.623,55.915,14.973,1.788A40,40,0,0,0-11.96-5.831L-10.171-20.8A40,40,0,0,0-45.144-65.266l-14.974-1.789A40,40,0,0,0-104.58-32.082l-1.788,14.974A40,40,0,0,0-71.395,27.354Z"/>
      <path id="Path_259" data-name="Path 259" class="cls-4" d="M1.725,13.19A18,18,0,0,1-18.237,28.98l-13.347-1.557A18,18,0,0,1-47.375,7.462l1.557-13.348a18,18,0,0,1,19.962-15.79l13.347,1.557A18,18,0,0,1,3.282-.158ZM-9.051-42.687l-14.976-1.747A40,40,0,0,0-68.385-9.344L-70.132,5.632a40,40,0,0,0,35.09,44.359l14.976,1.747a40,40,0,0,0,44.358-35.09L26.039,1.672A40,40,0,0,0-9.051-42.687Z"/>
      <path id="Path_260" data-name="Path 260" class="cls-5" d="M35.589,39.5A18,18,0,0,1,15.674,55.339L2.325,53.819A18,18,0,0,1-13.518,33.9L-12,20.555A18,18,0,0,1,7.916,4.712l13.35,1.52A18,18,0,0,1,37.109,26.147ZM24.661-16.342,9.683-18.047A39.99,39.99,0,0,0-34.572,17.16l-1.706,14.978A39.99,39.99,0,0,0-1.071,76.393L13.908,78.1A39.988,39.988,0,0,0,58.162,42.892l1.706-14.979A39.991,39.991,0,0,0,24.661-16.342Z"/>
      <path id="Path_261" data-name="Path 261" class="cls-6" d="M66.588,69.178a17.992,17.992,0,0,1-19.867,15.9L33.369,83.591a17.993,17.993,0,0,1-15.9-19.868l1.483-13.352A17.993,17.993,0,0,1,38.824,34.476l13.352,1.483a17.992,17.992,0,0,1,15.9,19.867Zm-11.08-55.8L40.527,11.715A39.984,39.984,0,0,0-3.624,47.039L-5.287,62.02a39.983,39.983,0,0,0,35.323,44.151l14.981,1.664A39.984,39.984,0,0,0,89.168,72.511L90.832,57.53A39.984,39.984,0,0,0,55.508,13.379Z"/>
      <path id="Path_262" data-name="Path 262" class="cls-7" d="M94.24,101.845a17.991,17.991,0,0,1-19.821,15.949l-13.354-1.446A17.99,17.99,0,0,1,45.117,96.527l1.446-13.354A17.99,17.99,0,0,1,66.384,67.224L79.738,68.67A17.991,17.991,0,0,1,95.686,88.491ZM83.007,46.085,68.024,44.462A39.978,39.978,0,0,0,23.977,79.9L22.355,94.887A39.978,39.978,0,0,0,57.8,138.934l14.983,1.622a39.978,39.978,0,0,0,44.047-35.441l1.622-14.983A39.977,39.977,0,0,0,83.007,46.085Z"/>
      <path id="Path_263" data-name="Path 263" class="cls-8" d="M118.061,137.108a17.988,17.988,0,0,1-19.774,16L84.931,151.7a17.988,17.988,0,0,1-16-19.774l1.408-13.357a17.989,17.989,0,0,1,19.775-16l13.356,1.409a17.989,17.989,0,0,1,16,19.775ZM106.676,81.385,91.69,79.805a39.972,39.972,0,0,0-43.943,35.557l-1.581,14.986a39.973,39.973,0,0,0,35.558,43.944l14.986,1.58a39.972,39.972,0,0,0,43.943-35.557l1.581-14.986A39.975,39.975,0,0,0,106.676,81.385Z"/>
      <path id="Path_264" data-name="Path 264" class="cls-9" d="M137.568,174.575a17.987,17.987,0,0,1-19.728,16.054l-13.358-1.372a17.986,17.986,0,0,1-16.054-19.728L89.8,156.171a17.986,17.986,0,0,1,19.728-16.053l13.358,1.371a17.987,17.987,0,0,1,16.054,19.728ZM126.03,118.892l-14.988-1.54A39.969,39.969,0,0,0,67.2,153.027l-1.539,14.988a39.969,39.969,0,0,0,35.675,43.84l14.988,1.539a39.968,39.968,0,0,0,43.84-35.675l1.539-14.988A39.968,39.968,0,0,0,126.03,118.892Z"/>
      <path id="Path_265" data-name="Path 265" class="cls-10" d="M152.277,213.858A17.984,17.984,0,0,1,132.6,229.964l-13.36-1.334a17.984,17.984,0,0,1-16.107-19.681l1.335-13.361a17.984,17.984,0,0,1,19.681-16.106l13.361,1.334A17.985,17.985,0,0,1,153.612,200.5Zm-11.69-55.645-14.991-1.5A39.964,39.964,0,0,0,81.86,192.507l-1.5,14.991a39.962,39.962,0,0,0,35.791,43.735l14.991,1.5a39.964,39.964,0,0,0,43.736-35.792l1.5-14.991A39.962,39.962,0,0,0,140.587,158.213Z"/>
      <path id="Path_266" data-name="Path 266" class="cls-11" d="M161.706,254.566a17.982,17.982,0,0,1-19.634,16.159l-13.363-1.3a17.983,17.983,0,0,1-16.159-19.634l1.3-13.363a17.982,17.982,0,0,1,19.634-16.159l13.363,1.3A17.982,17.982,0,0,1,163,241.2Zm-11.843-55.607L134.87,197.5a39.959,39.959,0,0,0-43.632,35.908L89.782,248.4a39.96,39.96,0,0,0,35.909,43.632l14.993,1.456a39.96,39.96,0,0,0,43.632-35.909l1.456-14.993A39.96,39.96,0,0,0,149.863,198.959Z"/>
      <path id="Path_267" data-name="Path 267" class="cls-12" d="M165.371,296.309a17.98,17.98,0,0,1-19.587,16.211l-13.365-1.26a17.982,17.982,0,0,1-16.212-19.588l1.261-13.365A17.981,17.981,0,0,1,137.056,262.1l13.365,1.261a17.981,17.981,0,0,1,16.211,19.588ZM153.376,240.74l-15-1.414a39.955,39.955,0,0,0-43.528,36.025l-1.414,15a39.954,39.954,0,0,0,36.025,43.528l15,1.415a39.956,39.956,0,0,0,43.528-36.026l1.414-15A39.955,39.955,0,0,0,153.376,240.74Z"/>
      <path id="Path_268" data-name="Path 268" class="cls-13" d="M162.882,338.516a17.98,17.98,0,0,1-19.541,16.264l-13.367-1.224a17.978,17.978,0,0,1-16.264-19.541l1.223-13.367a17.979,17.979,0,0,1,19.541-16.264l13.367,1.223A17.979,17.979,0,0,1,164.1,325.148Zm-12.148-55.53-15-1.373a39.952,39.952,0,0,0-43.425,36.142l-1.372,15a39.951,39.951,0,0,0,36.142,43.424l15,1.373A39.953,39.953,0,0,0,185.5,341.408l1.372-15A39.951,39.951,0,0,0,150.734,282.986Z"/>
      <path id="Path_269" data-name="Path 269" class="cls-14" d="M155.221,380.141a17.979,17.979,0,0,1-19.495,16.317l-13.369-1.187a17.977,17.977,0,0,1-16.317-19.494l1.187-13.369a17.977,17.977,0,0,1,19.494-16.317l13.369,1.186a17.979,17.979,0,0,1,16.317,19.495Zm-12.3-55.491-15-1.332A39.95,39.95,0,0,0,84.6,359.578l-1.331,15A39.948,39.948,0,0,0,119.527,417.9l15,1.331a39.947,39.947,0,0,0,43.32-36.259l1.331-15A39.947,39.947,0,0,0,142.92,324.65Z"/>
      <path id="Path_270" data-name="Path 270" class="cls-15" d="M144.326,421.3a17.976,17.976,0,0,1-19.448,16.369l-13.372-1.149a17.976,17.976,0,0,1-16.369-19.447l1.15-13.372a17.975,17.975,0,0,1,19.447-16.369l13.372,1.149a17.976,17.976,0,0,1,16.369,19.448Zm-12.453-55.453-15-1.289A39.945,39.945,0,0,0,73.653,400.93l-1.29,15a39.945,39.945,0,0,0,36.376,43.217l15,1.289a39.944,39.944,0,0,0,43.216-36.376l1.29-15A39.946,39.946,0,0,0,131.873,365.843Z"/>
      <path id="Path_271" data-name="Path 271" class="cls-16" d="M132.143,462.234a17.975,17.975,0,0,1-19.4,16.422l-13.374-1.112a17.976,17.976,0,0,1-16.422-19.4l1.112-13.374a17.976,17.976,0,0,1,19.4-16.422l13.374,1.112a17.976,17.976,0,0,1,16.422,19.4ZM119.537,406.82l-15.005-1.248a39.942,39.942,0,0,0-43.113,36.493L60.171,457.07a39.942,39.942,0,0,0,36.493,43.114l15,1.247a39.941,39.941,0,0,0,43.113-36.492l1.248-15.006A39.942,39.942,0,0,0,119.537,406.82Z"/>
      <path id="Path_272" data-name="Path 272" class="cls-17" d="M120.617,503.207a17.973,17.973,0,0,1-19.354,16.475l-13.376-1.075a17.974,17.974,0,0,1-16.474-19.355l1.075-13.376A17.973,17.973,0,0,1,91.842,469.4l13.376,1.075a17.973,17.973,0,0,1,16.474,19.354ZM107.86,447.831l-15.009-1.206a39.94,39.94,0,0,0-43.009,36.61l-1.206,15.008a39.939,39.939,0,0,0,36.61,43.009l15.008,1.207a39.939,39.939,0,0,0,43.009-36.61l1.206-15.008A39.94,39.94,0,0,0,107.86,447.831Z"/>
      <path id="Path_273" data-name="Path 273" class="cls-18" d="M111.695,544.468a17.972,17.972,0,0,1-19.307,16.527L79.01,559.957a17.972,17.972,0,0,1-16.527-19.308l1.038-13.378a17.972,17.972,0,0,1,19.307-16.527l13.378,1.038a17.972,17.972,0,0,1,16.527,19.308ZM98.785,489.13l-15.011-1.164a39.937,39.937,0,0,0-42.905,36.726L39.7,539.7a39.938,39.938,0,0,0,36.727,42.906l15.011,1.164a39.937,39.937,0,0,0,42.9-36.726l1.165-15.011A39.938,39.938,0,0,0,98.785,489.13Z"/>
      <path id="Path_274" data-name="Path 274" class="cls-19" d="M107.322,586.269a17.97,17.97,0,0,1-19.26,16.579l-13.381-1A17.971,17.971,0,0,1,58.1,582.586l1-13.38a17.971,17.971,0,0,1,19.26-16.58l13.381,1a17.971,17.971,0,0,1,16.579,19.261ZM94.26,530.97l-15.013-1.124a39.936,39.936,0,0,0-42.8,36.844L35.322,581.7a39.935,39.935,0,0,0,36.843,42.8l15.013,1.123a39.936,39.936,0,0,0,42.8-36.843l1.123-15.014A39.935,39.935,0,0,0,94.26,530.97Z"/>
      <path id="Path_275" data-name="Path 275" class="cls-20" d="M109.251,628.261a17.971,17.971,0,0,1-19.215,16.632l-13.382-.964a17.97,17.97,0,0,1-16.632-19.214l.963-13.382A17.973,17.973,0,0,1,80.2,594.7l13.382.964a17.971,17.971,0,0,1,16.632,19.214ZM96.035,573,81.02,571.919a39.934,39.934,0,0,0-42.7,36.961L37.24,623.9a39.934,39.934,0,0,0,36.961,42.7l15.015,1.082a39.934,39.934,0,0,0,42.7-36.961L133,615.7A39.934,39.934,0,0,0,96.035,573Z"/>
      <path id="Path_276" data-name="Path 276" class="cls-21" d="M117.541,668.784a17.971,17.971,0,0,1-19.167,16.685l-13.385-.927A17.971,17.971,0,0,1,68.3,665.374l.927-13.384A17.97,17.97,0,0,1,88.4,635.3l13.385.927A17.969,17.969,0,0,1,118.468,655.4Zm-13.367-55.222-15.018-1.04A39.933,39.933,0,0,0,46.561,649.6l-1.04,15.018A39.934,39.934,0,0,0,82.6,707.212l15.018,1.04a39.934,39.934,0,0,0,42.594-37.078l1.04-15.018A39.933,39.933,0,0,0,104.174,613.562Z"/>
      <path id="Path_277" data-name="Path 277" class="cls-22" d="M131.4,707.747a17.97,17.97,0,0,1-19.121,16.737l-13.387-.89a17.97,17.97,0,0,1-16.737-19.121l.89-13.387a17.97,17.97,0,0,1,19.12-16.737l13.387.89a17.97,17.97,0,0,1,16.738,19.12Zm-13.52-55.184-15.021-1a39.931,39.931,0,0,0-42.49,37.194l-1,15.021a39.931,39.931,0,0,0,37.194,42.49l15.02,1a39.932,39.932,0,0,0,42.491-37.194l1-15.021A39.931,39.931,0,0,0,117.88,652.563Z"/>
      <path id="Path_278" data-name="Path 278" class="cls-23" d="M150.027,745.178a17.971,17.971,0,0,1-19.074,16.79l-13.39-.853a17.971,17.971,0,0,1-16.79-19.074l.853-13.389a17.97,17.97,0,0,1,19.074-16.79l13.389.852a17.97,17.97,0,0,1,16.79,19.074Zm-13.673-55.146-15.023-.956a39.931,39.931,0,0,0-42.387,37.311l-.956,15.023A39.931,39.931,0,0,0,115.3,783.8l15.023.956a39.93,39.93,0,0,0,42.386-37.311l.957-15.023A39.932,39.932,0,0,0,136.354,690.032Z"/>
      <path id="Path_279" data-name="Path 279" class="cls-24" d="M172.621,781.1a17.97,17.97,0,0,1-19.027,16.843l-13.392-.816A17.97,17.97,0,0,1,123.359,778.1l.816-13.392A17.968,17.968,0,0,1,143.2,747.871l13.392.815a17.97,17.97,0,0,1,16.842,19.028ZM158.8,726l-15.026-.915a39.932,39.932,0,0,0-42.283,37.428l-.915,15.026A39.932,39.932,0,0,0,138,819.82l15.026.915a39.931,39.931,0,0,0,42.283-37.428l.915-15.026A39.932,39.932,0,0,0,158.8,726Z"/>
      <path id="Path_280" data-name="Path 280" class="cls-25" d="M198.382,815.557a17.969,17.969,0,0,1-18.98,16.9l-13.394-.779a17.969,17.969,0,0,1-16.895-18.981l.778-13.393a17.969,17.969,0,0,1,18.981-16.895l13.394.778a17.97,17.97,0,0,1,16.895,18.981ZM184.4,760.489l-15.028-.873A39.93,39.93,0,0,0,127.2,797.161l-.874,15.028a39.931,39.931,0,0,0,37.545,42.179l15.028.873A39.93,39.93,0,0,0,221.076,817.7l.874-15.028A39.932,39.932,0,0,0,184.4,760.489Z"/>
      <path id="Path_281" data-name="Path 281" class="cls-26" d="M226.511,848.563a17.968,17.968,0,0,1-18.934,16.947l-13.4-.741a17.969,17.969,0,0,1-16.947-18.934l.741-13.4a17.97,17.97,0,0,1,18.934-16.948l13.4.742a17.97,17.97,0,0,1,16.948,18.934Zm-14.13-55.03-15.03-.832a39.931,39.931,0,0,0-42.076,37.662l-.832,15.03A39.933,39.933,0,0,0,192.1,887.469l15.031.832a39.932,39.932,0,0,0,42.075-37.662l.832-15.031A39.931,39.931,0,0,0,212.381,793.533Z"/>
      <path id="Path_282" data-name="Path 282" class="cls-27" d="M256.207,880.149a17.969,17.969,0,0,1-18.887,17l-13.4-.7a17.97,17.97,0,0,1-17-18.887l.705-13.4a17.97,17.97,0,0,1,18.887-17l13.4.705a17.971,17.971,0,0,1,17,18.887Zm-14.283-54.991-15.032-.791a39.933,39.933,0,0,0-41.972,37.779l-.79,15.033a39.932,39.932,0,0,0,37.778,41.972l15.033.79a39.933,39.933,0,0,0,41.972-37.779l.79-15.033A39.931,39.931,0,0,0,241.924,825.158Z"/>
      <path id="Path_283" data-name="Path 283" class="cls-28" d="M286.67,910.345A17.972,17.972,0,0,1,267.829,927.4l-13.4-.667a17.97,17.97,0,0,1-17.053-18.841l.667-13.4a17.97,17.97,0,0,1,18.841-17.053l13.4.667a17.969,17.969,0,0,1,17.053,18.84Zm-14.435-54.953-15.036-.749a39.934,39.934,0,0,0-41.868,37.9l-.748,15.036a39.932,39.932,0,0,0,37.9,41.867l15.036.749a39.933,39.933,0,0,0,41.868-37.9l.748-15.035A39.933,39.933,0,0,0,272.235,855.392Z"/>
      <path id="Path_284" data-name="Path 284" class="cls-29" d="M317.475,939.96a17.971,17.971,0,0,1-18.793,17.106l-13.4-.631a17.971,17.971,0,0,1-17.106-18.793l.631-13.4A17.971,17.971,0,0,1,287.6,907.133l13.4.631a17.971,17.971,0,0,1,17.106,18.794Zm-14.587-54.914-15.038-.707a39.933,39.933,0,0,0-41.764,38.012l-.707,15.038a39.933,39.933,0,0,0,38.012,41.764l15.038.707a39.934,39.934,0,0,0,41.764-38.012l.707-15.038A39.934,39.934,0,0,0,302.888,885.046Z"/>
      <path id="Path_285" data-name="Path 285" class="cls-30" d="M348.319,970.058a17.971,17.971,0,0,1-18.747,17.158l-13.4-.593a17.973,17.973,0,0,1-17.159-18.747l.593-13.4a17.972,17.972,0,0,1,18.748-17.158l13.4.593a17.973,17.973,0,0,1,17.159,18.747Zm-14.74-54.876-15.04-.666a39.936,39.936,0,0,0-41.66,38.13l-.666,15.04a39.937,39.937,0,0,0,38.13,41.661l15.04.665a39.935,39.935,0,0,0,41.66-38.129l.666-15.041A39.936,39.936,0,0,0,333.579,915.182Z"/>
      <path id="Path_286" data-name="Path 286" class="cls-31" d="M378.486,1000.9a17.973,17.973,0,0,1-18.7,17.211l-13.407-.556a17.971,17.971,0,0,1-17.21-18.7l.556-13.407a17.972,17.972,0,0,1,18.7-17.211l13.407.556a17.973,17.973,0,0,1,17.211,18.7Zm-14.893-54.837-15.043-.624a39.938,39.938,0,0,0-41.556,38.246l-.624,15.043a39.938,39.938,0,0,0,38.246,41.557l15.043.624a39.938,39.938,0,0,0,41.557-38.247l.624-15.043A39.938,39.938,0,0,0,363.593,946.059Z"/>
      <path id="Path_287" data-name="Path 287" class="cls-32" d="M407.258,1032.733A17.973,17.973,0,0,1,388.6,1050l-13.409-.519a17.973,17.973,0,0,1-17.263-18.654l.519-13.409a17.973,17.973,0,0,1,18.653-17.263l13.41.519a17.973,17.973,0,0,1,17.263,18.654Zm-15.045-54.8-15.045-.582a39.939,39.939,0,0,0-41.453,38.363l-.583,15.045a39.94,39.94,0,0,0,38.364,41.453l15.045.582a39.939,39.939,0,0,0,41.453-38.363l.582-15.045A39.94,39.94,0,0,0,392.213,977.934Z"/>
      <path id="Path_288" data-name="Path 288" class="cls-33" d="M433.92,1065.825a17.975,17.975,0,0,1-18.607,17.316l-13.412-.482a17.974,17.974,0,0,1-17.316-18.607l.482-13.411a17.974,17.974,0,0,1,18.607-17.316l13.411.482a17.975,17.975,0,0,1,17.317,18.607Zm-15.2-54.76-15.048-.541A39.942,39.942,0,0,0,362.325,1049l-.541,15.048a39.943,39.943,0,0,0,38.481,41.349l15.047.541a39.942,39.942,0,0,0,41.349-38.48l.541-15.048A39.942,39.942,0,0,0,418.722,1011.065Z"/>
      <path id="Path_289" data-name="Path 289" class="cls-34" d="M457.754,1100.43a17.976,17.976,0,0,1-18.56,17.369l-13.414-.445a17.976,17.976,0,0,1-17.369-18.56l.445-13.414a17.976,17.976,0,0,1,18.56-17.368l13.414.445a17.976,17.976,0,0,1,17.369,18.56Zm-15.35-54.721-15.051-.5a39.945,39.945,0,0,0-41.245,38.6l-.5,15.05a39.945,39.945,0,0,0,38.6,41.245l15.05.5A39.944,39.944,0,0,0,480.5,1102l.5-15.05A39.945,39.945,0,0,0,442.4,1045.709Z"/>
      <path id="Path_290" data-name="Path 290" class="cls-35" d="M478.044,1136.807a17.976,17.976,0,0,1-18.513,17.421l-13.416-.408a17.979,17.979,0,0,1-17.422-18.514l.408-13.415a17.979,17.979,0,0,1,18.514-17.422l13.416.408a17.977,17.977,0,0,1,17.421,18.514Zm-15.5-54.684-15.053-.457a39.948,39.948,0,0,0-41.142,38.714l-.457,15.052a39.948,39.948,0,0,0,38.714,41.142l15.053.458a39.948,39.948,0,0,0,41.141-38.715l.458-15.052A39.948,39.948,0,0,0,462.542,1082.123Z"/>
      <path id="Path_291" data-name="Path 291" class="cls-36" d="M494.074,1175.211a17.979,17.979,0,0,1-18.467,17.474l-13.418-.371a17.978,17.978,0,0,1-17.474-18.467l.371-13.418a17.979,17.979,0,0,1,18.467-17.474l13.418.371a17.978,17.978,0,0,1,17.474,18.467Zm-15.655-54.645-15.055-.416a39.951,39.951,0,0,0-41.038,38.831l-.416,15.055a39.951,39.951,0,0,0,38.831,41.038l15.055.416a39.951,39.951,0,0,0,41.038-38.831l.416-15.055A39.951,39.951,0,0,0,478.419,1120.566Z"/>
      <path id="Path_292" data-name="Path 292" class="cls-37" d="M505.115,1215.836a17.98,17.98,0,0,1-18.42,17.526l-13.421-.333a17.98,17.98,0,0,1-17.526-18.421l.333-13.42a17.98,17.98,0,0,1,18.421-17.526l13.42.333a17.98,17.98,0,0,1,17.526,18.421Zm-15.808-54.607-15.058-.374a39.955,39.955,0,0,0-40.933,38.948l-.375,15.058a39.956,39.956,0,0,0,38.948,40.934l15.058.374a39.956,39.956,0,0,0,40.934-38.948l.374-15.058A39.956,39.956,0,0,0,489.307,1161.229Z"/>
      <path id="Path_293" data-name="Path 293" class="cls-38" d="M510.7,1257.448a17.982,17.982,0,0,1-18.374,17.579l-13.422-.3a17.982,17.982,0,0,1-17.579-18.374l.3-13.422a17.982,17.982,0,0,1,18.374-17.579l13.422.3A17.982,17.982,0,0,1,511,1244.026Zm-15.96-54.568-15.06-.333a39.961,39.961,0,0,0-40.831,39.065l-.332,15.06a39.959,39.959,0,0,0,39.064,40.831l15.061.332a39.959,39.959,0,0,0,40.83-39.064l.332-15.061A39.958,39.958,0,0,0,494.74,1202.88Z"/>
      <path id="Path_294" data-name="Path 294" class="cls-39" d="M511.781,1299.422a17.984,17.984,0,0,1-18.327,17.632l-13.425-.26a17.983,17.983,0,0,1-17.631-18.326l.259-13.425a17.984,17.984,0,0,1,18.327-17.632l13.425.26A17.984,17.984,0,0,1,512.04,1286Zm-16.113-54.529-15.062-.291a39.963,39.963,0,0,0-40.727,39.181l-.291,15.063a39.963,39.963,0,0,0,39.182,40.726l15.062.292a39.965,39.965,0,0,0,40.727-39.182l.291-15.063A39.963,39.963,0,0,0,495.668,1244.893Z"/>
      <path id="Path_295" data-name="Path 295" class="cls-40" d="M509.6,1341.67a17.987,17.987,0,0,1-18.28,17.684l-13.427-.223a17.987,17.987,0,0,1-17.685-18.28l.223-13.426a17.986,17.986,0,0,1,18.28-17.685l13.427.223a17.985,17.985,0,0,1,17.684,18.28Zm-16.265-54.491-15.065-.25a39.967,39.967,0,0,0-40.623,39.3l-.25,15.065a39.968,39.968,0,0,0,39.3,40.622l15.065.25a39.968,39.968,0,0,0,40.623-39.3l.249-15.065A39.967,39.967,0,0,0,493.334,1287.179Z"/>
      <path id="Path_296" data-name="Path 296" class="cls-41" d="M505.394,1384.1a17.989,17.989,0,0,1-18.233,17.737l-13.429-.185a17.988,17.988,0,0,1-17.737-18.234l.185-13.429a17.987,17.987,0,0,1,18.233-17.736l13.429.185a17.988,17.988,0,0,1,17.737,18.233Zm-16.418-54.452-15.067-.208a39.973,39.973,0,0,0-40.519,39.415l-.208,15.068a39.973,39.973,0,0,0,39.415,40.519l15.068.208a39.973,39.973,0,0,0,40.519-39.416l.208-15.067A39.973,39.973,0,0,0,488.976,1329.649Z"/>
      <path id="Path_297" data-name="Path 297" class="cls-42" d="M500.407,1426.629a17.99,17.99,0,0,1-18.186,17.789l-13.432-.148A17.99,17.99,0,0,1,451,1426.083l.148-13.431a17.991,17.991,0,0,1,18.187-17.789l13.431.148a17.991,17.991,0,0,1,17.79,18.187Zm-16.57-54.414-15.07-.166a39.978,39.978,0,0,0-40.415,39.532l-.166,15.07a39.978,39.978,0,0,0,39.532,40.415l15.07.166A39.976,39.976,0,0,0,523.2,1427.7l.167-15.07A39.978,39.978,0,0,0,483.837,1372.215Z"/>
      <path id="Path_298" data-name="Path 298" class="cls-43" d="M495.88,1469.163a17.993,17.993,0,0,1-18.14,17.842l-13.434-.111a17.993,17.993,0,0,1-17.842-18.14l.111-13.433a17.993,17.993,0,0,1,18.14-17.842l13.434.111a17.993,17.993,0,0,1,17.842,18.14Zm-16.723-54.375-15.072-.125a39.983,39.983,0,0,0-40.312,39.649l-.124,15.073A39.983,39.983,0,0,0,463.3,1509.7l15.072.125a39.984,39.984,0,0,0,40.312-39.649l.124-15.073A39.983,39.983,0,0,0,479.157,1414.788Z"/>
      <path id="Path_299" data-name="Path 299" class="cls-44" d="M493.052,1511.616a18,18,0,0,1-18.094,17.9l-13.435-.075a18,18,0,0,1-17.9-18.093l.074-13.436a18,18,0,0,1,18.093-17.894l13.436.074a18,18,0,0,1,17.9,18.093Zm-16.876-54.337L461.1,1457.2a39.989,39.989,0,0,0-40.207,39.766l-.083,15.075a39.988,39.988,0,0,0,39.766,40.207l15.075.084a39.989,39.989,0,0,0,40.207-39.767l.084-15.075A39.99,39.99,0,0,0,476.176,1457.279Z"/>
      <path id="Path_300" data-name="Path 300" class="cls-45" d="M493.164,1553.9a18,18,0,0,1-18.047,17.947l-13.438-.037a18,18,0,0,1-17.947-18.047l.037-13.438a18,18,0,0,1,18.046-17.947l13.438.037A18,18,0,0,1,493.2,1540.46Zm-17.028-54.3-15.077-.041a39.995,39.995,0,0,0-40.1,39.883l-.042,15.077a40,40,0,0,0,39.883,40.1l15.078.042a40,40,0,0,0,40.1-39.884l.041-15.077A40,40,0,0,0,476.136,1499.6Z"/>
      <path id="Path_301" data-name="Path 301" class="cls-46" d="M497.457,1595.92a18,18,0,0,1-18,18h-13.44a18,18,0,0,1-18-18v-13.44a18,18,0,0,1,18-18h13.44a18,18,0,0,1,18,18Zm-17.18-54.26H465.2a40,40,0,0,0-40,40v15.08a40,40,0,0,0,40,40h15.08a40,40,0,0,0,40-40v-15.08A40,40,0,0,0,480.277,1541.66Z"/>
    </g>
    <g id="Group_101" data-name="Group 101" transform="translate(2152.336 4619.564) rotate(175)">
      <path id="Path_258-2" data-name="Path 258" class="cls-3" d="M24.636,57.989A18,18,0,0,0,44.644,73.727l13.345-1.594A18,18,0,0,0,73.727,52.125L72.133,38.78A18,18,0,0,0,52.125,23.042L38.78,24.636A18,18,0,0,0,23.042,44.644ZM35.259,2.074,50.232.286A40,40,0,0,1,94.694,35.259l1.789,14.973A40,40,0,0,1,61.51,94.694L46.536,96.483A40,40,0,0,1,2.074,61.51L.286,46.536A40,40,0,0,1,35.259,2.074Z" transform="translate(0 1607.311)"/>
      <path id="Path_259-2" data-name="Path 259" class="cls-4" d="M72.13,38.821a18,18,0,0,0-19.962-15.79L38.821,24.588A18,18,0,0,0,23.03,44.549L24.587,57.9a18,18,0,0,0,19.962,15.79L57.9,72.13A18,18,0,0,0,73.687,52.169ZM61.354,94.7,46.378,96.445A40,40,0,0,1,2.02,61.355L.273,46.379A40,40,0,0,1,35.363,2.02L50.339.273A40,40,0,0,1,94.7,35.363l1.747,14.976A40,40,0,0,1,61.354,94.7Z" transform="translate(36.249 1584.729)"/>
      <path id="Path_260-2" data-name="Path 260" class="cls-5" d="M72.127,38.862A18,18,0,0,0,52.212,23.019l-13.349,1.52A18,18,0,0,0,23.02,44.453L24.54,57.8A18,18,0,0,0,44.454,73.646l13.35-1.52A18,18,0,0,0,73.647,52.211ZM61.2,94.7,46.221,96.405A39.99,39.99,0,0,1,1.966,61.2L.26,46.22A39.99,39.99,0,0,1,35.467,1.965L50.446.26A39.988,39.988,0,0,1,94.7,35.466l1.706,14.979A39.991,39.991,0,0,1,61.2,94.7Z" transform="translate(70.116 1558.381)"/>
      <path id="Path_261-2" data-name="Path 261" class="cls-6" d="M72.123,38.9a17.992,17.992,0,0,0-19.867-15.9L38.9,24.492a17.993,17.993,0,0,0-15.9,19.868l1.483,13.352A17.993,17.993,0,0,0,44.359,73.607l13.352-1.483A17.992,17.992,0,0,0,73.606,52.257ZM61.043,94.7,46.062,96.368A39.984,39.984,0,0,1,1.911,61.044L.248,46.063A39.983,39.983,0,0,1,35.571,1.912L50.552.248A39.984,39.984,0,0,1,94.7,35.572l1.664,14.981A39.984,39.984,0,0,1,61.043,94.7Z" transform="translate(101.119 1528.657)"/>
      <path id="Path_262-2" data-name="Path 262" class="cls-7" d="M72.121,38.947A17.991,17.991,0,0,0,52.3,23L38.946,24.444A17.99,17.99,0,0,0,23,44.265l1.446,13.354A17.99,17.99,0,0,0,44.265,73.568l13.354-1.446A17.991,17.991,0,0,0,73.567,52.3ZM60.888,94.707,45.9,96.33A39.978,39.978,0,0,1,1.858,60.889L.236,45.9A39.978,39.978,0,0,1,35.677,1.858L50.66.236A39.978,39.978,0,0,1,94.707,35.677L96.329,50.66A39.977,39.977,0,0,1,60.888,94.707Z" transform="translate(128.773 1495.948)"/>
      <path id="Path_263-2" data-name="Path 263" class="cls-8" d="M72.119,38.988a17.988,17.988,0,0,0-19.774-16L38.989,24.4a17.988,17.988,0,0,0-16,19.774L24.4,57.527a17.989,17.989,0,0,0,19.775,16l13.356-1.409a17.989,17.989,0,0,0,16-19.775ZM60.734,94.711l-14.986,1.58A39.972,39.972,0,0,1,1.8,60.734L.224,45.748A39.973,39.973,0,0,1,35.782,1.8L50.768.224A39.972,39.972,0,0,1,94.711,35.781l1.581,14.986A39.975,39.975,0,0,1,60.734,94.711Z" transform="translate(152.597 1460.644)"/>
      <path id="Path_264-2" data-name="Path 264" class="cls-9" d="M72.117,39.031A17.987,17.987,0,0,0,52.389,22.977L39.031,24.349A17.986,17.986,0,0,0,22.977,44.077l1.372,13.358A17.986,17.986,0,0,0,44.077,73.488l13.358-1.371A17.987,17.987,0,0,0,73.489,52.389ZM60.579,94.714l-14.988,1.54A39.969,39.969,0,0,1,1.751,60.579L.212,45.591A39.969,39.969,0,0,1,35.887,1.751L50.875.212a39.968,39.968,0,0,1,43.84,35.675l1.539,14.988A39.968,39.968,0,0,1,60.579,94.714Z" transform="translate(172.105 1423.134)"/>
      <path id="Path_265-2" data-name="Path 265" class="cls-10" d="M72.115,39.074A17.984,17.984,0,0,0,52.434,22.968L39.074,24.3A17.984,17.984,0,0,0,22.967,43.983L24.3,57.344A17.984,17.984,0,0,0,43.983,73.45l13.361-1.334A17.985,17.985,0,0,0,73.45,52.434ZM60.425,94.719l-14.991,1.5A39.964,39.964,0,0,1,1.7,60.425L.2,45.434A39.962,39.962,0,0,1,35.992,1.7L50.983.2A39.964,39.964,0,0,1,94.719,35.993l1.5,14.991A39.962,39.962,0,0,1,60.425,94.719Z" transform="translate(186.816 1383.808)"/>
      <path id="Path_266-2" data-name="Path 266" class="cls-11" d="M72.114,39.117A17.982,17.982,0,0,0,52.48,22.958l-13.363,1.3A17.983,17.983,0,0,0,22.958,43.89l1.3,13.363A17.982,17.982,0,0,0,43.89,73.412l13.363-1.3A17.982,17.982,0,0,0,73.412,52.48ZM60.271,94.724,45.278,96.18A39.959,39.959,0,0,1,1.646,60.272L.19,45.278A39.96,39.96,0,0,1,36.1,1.646L51.092.19A39.96,39.96,0,0,1,94.724,36.1L96.18,51.092A39.96,39.96,0,0,1,60.271,94.724Z" transform="translate(196.246 1343.057)"/>
      <path id="Path_267-2" data-name="Path 267" class="cls-12" d="M72.112,39.16A17.98,17.98,0,0,0,52.525,22.949L39.16,24.209A17.982,17.982,0,0,0,22.948,43.8l1.261,13.365A17.981,17.981,0,0,0,43.8,73.374l13.365-1.261A17.981,17.981,0,0,0,73.373,52.525ZM60.117,94.729l-15,1.414A39.955,39.955,0,0,1,1.593,60.118l-1.414-15A39.954,39.954,0,0,1,36.2,1.594L51.2.179A39.956,39.956,0,0,1,94.728,36.205l1.414,15A39.955,39.955,0,0,1,60.117,94.729Z" transform="translate(199.913 1301.271)"/>
      <path id="Path_268-2" data-name="Path 268" class="cls-13" d="M72.112,39.2A17.98,17.98,0,0,0,52.571,22.94L39.2,24.164A17.978,17.978,0,0,0,22.94,43.7l1.223,13.367A17.979,17.979,0,0,0,43.7,73.336l13.367-1.223A17.979,17.979,0,0,0,73.335,52.572ZM59.964,94.734l-15,1.373A39.952,39.952,0,0,1,1.541,59.965l-1.372-15A39.951,39.951,0,0,1,36.311,1.542l15-1.373A39.953,39.953,0,0,1,94.734,36.312l1.372,15A39.951,39.951,0,0,1,59.964,94.734Z" transform="translate(197.424 1259.02)"/>
      <path id="Path_269-2" data-name="Path 269" class="cls-14" d="M72.112,39.248A17.979,17.979,0,0,0,52.617,22.931L39.248,24.118A17.977,17.977,0,0,0,22.931,43.612l1.187,13.369A17.977,17.977,0,0,0,43.612,73.3l13.369-1.186A17.979,17.979,0,0,0,73.3,52.617Zm-12.3,55.491-15,1.332A39.95,39.95,0,0,1,1.49,59.811l-1.331-15A39.948,39.948,0,0,1,36.418,1.49l15-1.331a39.947,39.947,0,0,1,43.32,36.259l1.331,15A39.947,39.947,0,0,1,59.811,94.739Z" transform="translate(189.763 1217.351)"/>
      <path id="Path_270-2" data-name="Path 270" class="cls-15" d="M72.112,39.292A17.976,17.976,0,0,0,52.664,22.923L39.292,24.072A17.976,17.976,0,0,0,22.923,43.519l1.15,13.372A17.975,17.975,0,0,0,43.52,73.26l13.372-1.149A17.976,17.976,0,0,0,73.261,52.663ZM59.659,94.745l-15,1.289A39.945,39.945,0,0,1,1.439,59.658l-1.29-15A39.945,39.945,0,0,1,36.525,1.438l15-1.289A39.944,39.944,0,0,1,94.745,36.525l1.29,15A39.946,39.946,0,0,1,59.659,94.745Z" transform="translate(178.868 1176.152)"/>
      <path id="Path_271-2" data-name="Path 271" class="cls-16" d="M72.112,39.337a17.975,17.975,0,0,0-19.4-16.422L39.337,24.027a17.976,17.976,0,0,0-16.422,19.4L24.027,56.8a17.976,17.976,0,0,0,19.4,16.422L56.8,72.112a17.976,17.976,0,0,0,16.422-19.4ZM59.506,94.751,44.5,96A39.942,39.942,0,0,1,1.388,59.506L.14,44.5A39.942,39.942,0,0,1,36.633,1.387l15-1.247A39.941,39.941,0,0,1,94.751,36.632L96,51.638A39.942,39.942,0,0,1,59.506,94.751Z" transform="translate(166.686 1135.169)"/>
      <path id="Path_272-2" data-name="Path 272" class="cls-17" d="M72.111,39.382A17.973,17.973,0,0,0,52.757,22.907L39.381,23.982A17.974,17.974,0,0,0,22.907,43.337l1.075,13.376A17.973,17.973,0,0,0,43.336,73.187l13.376-1.075A17.973,17.973,0,0,0,73.186,52.758ZM59.354,94.758,44.345,95.964A39.94,39.94,0,0,1,1.336,59.354L.13,44.346A39.939,39.939,0,0,1,36.74,1.337L51.748.13A39.939,39.939,0,0,1,94.757,36.74l1.206,15.008A39.94,39.94,0,0,1,59.354,94.758Z" transform="translate(155.16 1094.15)"/>
      <path id="Path_273-2" data-name="Path 273" class="cls-18" d="M72.113,39.427A17.972,17.972,0,0,0,52.806,22.9L39.428,23.938A17.972,17.972,0,0,0,22.9,43.246l1.038,13.378A17.972,17.972,0,0,0,43.246,73.151l13.378-1.038A17.972,17.972,0,0,0,73.151,52.8ZM59.2,94.765,44.192,95.929A39.937,39.937,0,0,1,1.287,59.2L.122,44.192A39.938,39.938,0,0,1,36.849,1.286L51.86.122a39.937,39.937,0,0,1,42.9,36.726L95.93,51.859A39.938,39.938,0,0,1,59.2,94.765Z" transform="translate(146.237 1052.845)"/>
      <path id="Path_274-2" data-name="Path 274" class="cls-19" d="M72.113,39.472a17.97,17.97,0,0,0-19.26-16.579l-13.381,1A17.971,17.971,0,0,0,22.893,43.155l1,13.38a17.971,17.971,0,0,0,19.26,16.58l13.381-1A17.971,17.971,0,0,0,73.114,52.853Zm-13.062,55.3L44.038,95.9a39.936,39.936,0,0,1-42.8-36.844L.113,44.038a39.935,39.935,0,0,1,36.843-42.8L51.969.113a39.936,39.936,0,0,1,42.8,36.843L95.894,51.97A39.935,39.935,0,0,1,59.051,94.771Z" transform="translate(141.863 1010.999)"/>
      <path id="Path_275-2" data-name="Path 275" class="cls-20" d="M72.116,39.519A17.971,17.971,0,0,0,52.9,22.887l-13.382.964A17.97,17.97,0,0,0,22.887,43.065l.963,13.382A17.973,17.973,0,0,0,43.065,73.08l13.382-.964A17.971,17.971,0,0,0,73.079,52.9ZM58.9,94.779,43.885,95.861A39.934,39.934,0,0,1,1.187,58.9L.1,43.885a39.934,39.934,0,0,1,36.961-42.7L52.081.1a39.934,39.934,0,0,1,42.7,36.961l1.082,15.015A39.934,39.934,0,0,1,58.9,94.779Z" transform="translate(143.789 968.96)"/>
      <path id="Path_276-2" data-name="Path 276" class="cls-21" d="M72.117,39.565A17.971,17.971,0,0,0,52.95,22.88l-13.385.927A17.971,17.971,0,0,0,22.88,42.975l.927,13.384A17.97,17.97,0,0,0,42.974,73.044l13.385-.927A17.969,17.969,0,0,0,73.044,52.95ZM58.75,94.787l-15.018,1.04A39.933,39.933,0,0,1,1.137,58.75L.1,43.732A39.934,39.934,0,0,1,37.175,1.137L52.193.1A39.934,39.934,0,0,1,94.787,37.175l1.04,15.018A39.933,39.933,0,0,1,58.75,94.787Z" transform="translate(152.078 928.391)"/>
      <path id="Path_277-2" data-name="Path 277" class="cls-22" d="M72.118,39.61A17.97,17.97,0,0,0,53,22.873l-13.387.89A17.97,17.97,0,0,0,22.873,42.884l.89,13.387a17.97,17.97,0,0,0,19.12,16.737l13.387-.89A17.97,17.97,0,0,0,73.008,53ZM58.6,94.794l-15.021,1A39.931,39.931,0,0,1,1.087,58.6l-1-15.021A39.931,39.931,0,0,1,37.283,1.087l15.02-1A39.932,39.932,0,0,1,94.794,37.284l1,15.021A39.931,39.931,0,0,1,58.6,94.794Z" transform="translate(165.936 889.382)"/>
      <path id="Path_278-2" data-name="Path 278" class="cls-23" d="M72.121,39.657a17.971,17.971,0,0,0-19.074-16.79l-13.39.853a17.971,17.971,0,0,0-16.79,19.074l.853,13.389a17.97,17.97,0,0,0,19.074,16.79l13.389-.852a17.97,17.97,0,0,0,16.79-19.074ZM58.448,94.8l-15.023.956A39.931,39.931,0,0,1,1.038,58.448L.082,43.425A39.931,39.931,0,0,1,37.393,1.038L52.416.082A39.93,39.93,0,0,1,94.8,37.393l.957,15.023A39.932,39.932,0,0,1,58.448,94.8Z" transform="translate(184.56 851.905)"/>
      <path id="Path_279-2" data-name="Path 279" class="cls-24" d="M72.124,39.705A17.97,17.97,0,0,0,53.1,22.862l-13.392.816A17.97,17.97,0,0,0,22.862,42.705L23.678,56.1A17.968,17.968,0,0,0,42.705,72.939L56.1,72.124A17.97,17.97,0,0,0,72.939,53.1ZM58.3,94.812l-15.026.915A39.932,39.932,0,0,1,.99,58.3L.075,43.273A39.932,39.932,0,0,1,37.5.99L52.529.075A39.931,39.931,0,0,1,94.812,37.5l.915,15.026A39.932,39.932,0,0,1,58.3,94.812Z" transform="translate(207.151 815.93)"/>
      <path id="Path_280-2" data-name="Path 280" class="cls-25" d="M72.127,39.753a17.969,17.969,0,0,0-18.98-16.9l-13.394.779A17.969,17.969,0,0,0,22.858,42.617l.778,13.393A17.969,17.969,0,0,0,42.616,72.9l13.394-.778A17.97,17.97,0,0,0,72.905,53.146ZM58.149,94.82l-15.028.873A39.93,39.93,0,0,1,.943,58.148L.069,43.12A39.931,39.931,0,0,1,37.614.942L52.642.068A39.93,39.93,0,0,1,94.821,37.614l.874,15.028A39.932,39.932,0,0,1,58.149,94.82Z" transform="translate(232.91 781.43)"/>
      <path id="Path_281-2" data-name="Path 281" class="cls-26" d="M72.13,39.8A17.968,17.968,0,0,0,53.2,22.853l-13.4.741A17.969,17.969,0,0,0,22.853,42.528l.741,13.4A17.97,17.97,0,0,0,42.528,72.872l13.4-.742A17.97,17.97,0,0,0,72.872,53.2ZM58,94.83l-15.03.832A39.931,39.931,0,0,1,.894,58L.062,42.97A39.933,39.933,0,0,1,37.724.894L52.755.062A39.932,39.932,0,0,1,94.83,37.724l.832,15.031A39.931,39.931,0,0,1,58,94.83Z" transform="translate(261.035 748.377)"/>
      <path id="Path_282-2" data-name="Path 282" class="cls-27" d="M72.133,39.848a17.969,17.969,0,0,0-18.887-17l-13.4.7a17.97,17.97,0,0,0-17,18.887l.705,13.4a17.97,17.97,0,0,0,18.887,17l13.4-.705a17.971,17.971,0,0,0,17-18.887ZM57.85,94.839l-15.032.791A39.933,39.933,0,0,1,.846,57.851L.056,42.818A39.932,39.932,0,0,1,37.834.846L52.867.056A39.933,39.933,0,0,1,94.839,37.835l.79,15.033A39.931,39.931,0,0,1,57.85,94.839Z" transform="translate(290.728 716.743)"/>
      <path id="Path_283-2" data-name="Path 283" class="cls-28" d="M72.137,39.9A17.972,17.972,0,0,0,53.3,22.843l-13.4.667A17.97,17.97,0,0,0,22.843,42.351l.667,13.4A17.97,17.97,0,0,0,42.351,72.8l13.4-.667A17.969,17.969,0,0,0,72.8,53.3ZM57.7,94.849,42.666,95.6A39.934,39.934,0,0,1,.8,57.7L.05,42.666A39.932,39.932,0,0,1,37.945.8L52.981.05a39.933,39.933,0,0,1,41.868,37.9L95.6,52.981A39.933,39.933,0,0,1,57.7,94.849Z" transform="translate(321.187 686.499)"/>
      <path id="Path_284-2" data-name="Path 284" class="cls-29" d="M72.141,39.945A17.971,17.971,0,0,0,53.348,22.839l-13.4.631A17.971,17.971,0,0,0,22.839,42.263l.631,13.4A17.971,17.971,0,0,0,42.263,72.772l13.4-.631A17.971,17.971,0,0,0,72.772,53.347ZM57.554,94.859l-15.038.707A39.933,39.933,0,0,1,.752,57.554L.045,42.516A39.933,39.933,0,0,1,38.057.752L53.095.045A39.934,39.934,0,0,1,94.859,38.057l.707,15.038A39.934,39.934,0,0,1,57.554,94.859Z" transform="translate(351.988 656.835)"/>
      <path id="Path_285-2" data-name="Path 285" class="cls-30" d="M72.146,39.994A17.971,17.971,0,0,0,53.4,22.836l-13.4.593A17.973,17.973,0,0,0,22.836,42.176l.593,13.4A17.972,17.972,0,0,0,42.177,72.739l13.4-.593A17.973,17.973,0,0,0,72.74,53.4ZM57.406,94.87l-15.04.666A39.936,39.936,0,0,1,.706,57.406L.04,42.366A39.937,39.937,0,0,1,38.17.7L53.21.04A39.935,39.935,0,0,1,94.87,38.169l.666,15.041A39.936,39.936,0,0,1,57.406,94.87Z" transform="translate(382.827 626.688)"/>
      <path id="Path_286-2" data-name="Path 286" class="cls-31" d="M72.151,40.044a17.973,17.973,0,0,0-18.7-17.211l-13.407.556a17.972,17.972,0,0,0-17.21,18.7L23.389,55.5a17.972,17.972,0,0,0,18.7,17.211L55.5,72.151a17.973,17.973,0,0,0,17.211-18.7ZM57.258,94.881,42.215,95.5A39.938,39.938,0,0,1,.659,57.259L.035,42.216A39.938,39.938,0,0,1,38.281.659L53.324.035A39.938,39.938,0,0,1,94.881,38.282L95.5,53.325A39.938,39.938,0,0,1,57.258,94.881Z" transform="translate(412.989 595.8)"/>
      <path id="Path_287-2" data-name="Path 287" class="cls-32" d="M72.156,40.093A17.973,17.973,0,0,0,53.5,22.83l-13.409.519A17.973,17.973,0,0,0,22.83,42l.519,13.409A17.973,17.973,0,0,0,42,72.674l13.41-.519A17.973,17.973,0,0,0,72.675,53.5Zm-15.045,54.8-15.045.582A39.939,39.939,0,0,1,.613,57.11L.03,42.066A39.94,39.94,0,0,1,38.394.613L53.439.031A39.939,39.939,0,0,1,94.892,38.394l.582,15.045A39.94,39.94,0,0,1,57.111,94.891Z" transform="translate(441.756 563.914)"/>
      <path id="Path_288-2" data-name="Path 288" class="cls-33" d="M72.162,40.143A17.975,17.975,0,0,0,53.555,22.827l-13.412.482A17.974,17.974,0,0,0,22.827,41.916l.482,13.411A17.974,17.974,0,0,0,41.916,72.643l13.411-.482A17.975,17.975,0,0,0,72.644,53.554ZM56.964,94.9l-15.048.541A39.942,39.942,0,0,1,.567,56.964L.026,41.916A39.943,39.943,0,0,1,38.507.567L53.554.026A39.942,39.942,0,0,1,94.9,38.506l.541,15.048A39.942,39.942,0,0,1,56.964,94.9Z" transform="translate(468.412 530.772)"/>
      <path id="Path_289-2" data-name="Path 289" class="cls-34" d="M72.167,40.193a17.976,17.976,0,0,0-18.56-17.369l-13.414.445a17.976,17.976,0,0,0-17.369,18.56l.445,13.414a17.976,17.976,0,0,0,18.56,17.368l13.414-.445a17.976,17.976,0,0,0,17.369-18.56ZM56.817,94.914l-15.051.5A39.945,39.945,0,0,1,.521,56.816l-.5-15.05A39.945,39.945,0,0,1,38.619.521l15.05-.5a39.944,39.944,0,0,1,41.246,38.6l.5,15.05A39.945,39.945,0,0,1,56.817,94.914Z" transform="translate(492.241 496.116)"/>
      <path id="Path_290-2" data-name="Path 290" class="cls-35" d="M72.173,40.244A17.976,17.976,0,0,0,53.66,22.823l-13.416.408A17.979,17.979,0,0,0,22.822,41.745L23.23,55.16A17.979,17.979,0,0,0,41.744,72.582l13.416-.408A17.977,17.977,0,0,0,72.581,53.66Zm-15.5,54.684-15.053.457A39.948,39.948,0,0,1,.476,56.671L.019,41.619A39.948,39.948,0,0,1,38.733.477L53.786.019A39.948,39.948,0,0,1,94.927,38.734l.458,15.052A39.948,39.948,0,0,1,56.671,94.928Z" transform="translate(512.525 459.689)"/>
      <path id="Path_291-2" data-name="Path 291" class="cls-36" d="M72.18,40.294A17.979,17.979,0,0,0,53.713,22.82l-13.418.371A17.978,17.978,0,0,0,22.821,41.658l.371,13.418A17.979,17.979,0,0,0,41.659,72.551l13.418-.371A17.978,17.978,0,0,0,72.551,53.713ZM56.525,94.939l-15.055.416A39.951,39.951,0,0,1,.432,56.525L.016,41.469A39.951,39.951,0,0,1,38.847.432L53.9.016A39.951,39.951,0,0,1,94.939,38.846L95.355,53.9A39.951,39.951,0,0,1,56.525,94.939Z" transform="translate(528.549 421.234)"/>
      <path id="Path_292-2" data-name="Path 292" class="cls-37" d="M72.187,40.345a17.98,17.98,0,0,0-18.42-17.526l-13.421.333A17.98,17.98,0,0,0,22.82,41.573l.333,13.42A17.98,17.98,0,0,0,41.574,72.52l13.42-.333A17.98,17.98,0,0,0,72.52,53.766ZM56.379,94.953l-15.058.374A39.955,39.955,0,0,1,.388,56.379L.013,41.321A39.956,39.956,0,0,1,38.961.386L54.019.013A39.956,39.956,0,0,1,94.952,38.961l.374,15.058A39.956,39.956,0,0,1,56.379,94.953Z" transform="translate(539.583 380.558)"/>
      <path id="Path_293-2" data-name="Path 293" class="cls-38" d="M72.193,40.4A17.982,17.982,0,0,0,53.819,22.818l-13.422.3A17.982,17.982,0,0,0,22.818,41.488l.3,13.422A17.982,17.982,0,0,0,41.488,72.489l13.422-.3A17.982,17.982,0,0,0,72.489,53.819ZM56.233,94.965l-15.06.333A39.961,39.961,0,0,1,.342,56.233L.01,41.173A39.959,39.959,0,0,1,39.074.342L54.135.01a39.959,39.959,0,0,1,40.83,39.064L95.3,54.135A39.958,39.958,0,0,1,56.233,94.965Z" transform="translate(545.161 338.895)"/>
      <path id="Path_294-2" data-name="Path 294" class="cls-39" d="M72.2,40.45A17.984,17.984,0,0,0,53.874,22.818l-13.425.26A17.983,17.983,0,0,0,22.818,41.4l.259,13.425A17.984,17.984,0,0,0,41.4,72.461l13.425-.26A17.984,17.984,0,0,0,72.46,53.874ZM56.088,94.979l-15.062.291A39.963,39.963,0,0,1,.3,56.089L.008,41.026A39.963,39.963,0,0,1,39.19.3L54.252.008A39.965,39.965,0,0,1,94.979,39.19l.291,15.063A39.963,39.963,0,0,1,56.088,94.979Z" transform="translate(546.235 296.868)"/>
      <path id="Path_295-2" data-name="Path 295" class="cls-40" d="M72.209,40.5a17.987,17.987,0,0,0-18.28-17.684L40.5,23.04A17.987,17.987,0,0,0,22.817,41.32l.223,13.426A17.986,17.986,0,0,0,41.32,72.431l13.427-.223a17.985,17.985,0,0,0,17.684-18.28ZM55.944,94.992l-15.065.25A39.967,39.967,0,0,1,.256,55.943L.006,40.878A39.968,39.968,0,0,1,39.3.256L54.37.006A39.968,39.968,0,0,1,94.993,39.3l.249,15.065A39.967,39.967,0,0,1,55.944,94.992Z" transform="translate(544.045 254.569)"/>
      <path id="Path_296-2" data-name="Path 296" class="cls-41" d="M72.216,40.554A17.989,17.989,0,0,0,53.983,22.817L40.554,23A17.988,17.988,0,0,0,22.817,41.236L23,54.665A17.987,17.987,0,0,0,41.235,72.4l13.429-.185A17.988,17.988,0,0,0,72.4,53.983ZM55.8,95.006l-15.067.208A39.973,39.973,0,0,1,.212,55.8L0,40.731A39.973,39.973,0,0,1,39.419.212L54.487,0A39.973,39.973,0,0,1,95.006,39.42l.208,15.067A39.973,39.973,0,0,1,55.8,95.006Z" transform="translate(539.832 212.085)"/>
      <path id="Path_297-2" data-name="Path 297" class="cls-42" d="M72.224,40.605A17.99,17.99,0,0,0,54.038,22.817l-13.432.148A17.99,17.99,0,0,0,22.816,41.151l.148,13.431A17.991,17.991,0,0,0,41.151,72.371l13.431-.148a17.991,17.991,0,0,0,17.79-18.187ZM55.654,95.02l-15.07.166A39.978,39.978,0,0,1,.168,55.653L0,40.583A39.978,39.978,0,0,1,39.534.168L54.6,0A39.976,39.976,0,0,1,95.019,39.535l.167,15.07A39.978,39.978,0,0,1,55.654,95.02Z" transform="translate(534.838 169.505)"/>
      <path id="Path_298-2" data-name="Path 298" class="cls-43" d="M72.232,40.659a17.993,17.993,0,0,0-18.14-17.842l-13.434.111a17.993,17.993,0,0,0-17.842,18.14L22.927,54.5a17.993,17.993,0,0,0,18.14,17.842L54.5,72.232a17.993,17.993,0,0,0,17.842-18.14ZM55.509,95.034l-15.072.125A39.983,39.983,0,0,1,.125,55.51L0,40.437A39.983,39.983,0,0,1,39.65.126L54.722,0A39.984,39.984,0,0,1,95.034,39.65l.124,15.073A39.983,39.983,0,0,1,55.509,95.034Z" transform="translate(530.302 126.918)"/>
      <path id="Path_299-2" data-name="Path 299" class="cls-44" d="M72.242,40.713a18,18,0,0,0-18.094-17.9l-13.435.075a18,18,0,0,0-17.9,18.093l.074,13.436A18,18,0,0,0,40.985,72.316l13.436-.074a18,18,0,0,0,17.9-18.093ZM55.366,95.05l-15.075.083A39.989,39.989,0,0,1,.084,55.367L0,40.292A39.988,39.988,0,0,1,39.767.085L54.842,0A39.989,39.989,0,0,1,95.049,39.768l.084,15.075A39.99,39.99,0,0,1,55.366,95.05Z" transform="translate(527.465 84.411)"/>
      <path id="Path_300-2" data-name="Path 300" class="cls-45" d="M72.251,40.766A18,18,0,0,0,54.2,22.819l-13.438.037A18,18,0,0,0,22.819,40.9l.037,13.438A18,18,0,0,0,40.9,72.288l13.438-.037A18,18,0,0,0,72.288,54.2Zm-17.028,54.3-15.077.041A39.995,39.995,0,0,1,.042,55.223L0,40.146A40,40,0,0,1,39.883.042L54.961,0a40,40,0,0,1,40.1,39.884l.041,15.077A40,40,0,0,1,55.223,95.065Z" transform="translate(527.567 42.076)"/>
      <path id="Path_301-2" data-name="Path 301" class="cls-46" d="M72.26,40.82a18,18,0,0,0-18-18H40.82a18,18,0,0,0-18,18V54.26a18,18,0,0,0,18,18H54.26a18,18,0,0,0,18-18ZM55.08,95.08H40a40,40,0,0,1-40-40V40A40,40,0,0,1,40,0H55.08a40,40,0,0,1,40,40V55.08A40,40,0,0,1,55.08,95.08Z" transform="translate(531.851 0)"/>
    </g>
  </g>
</svg>
