<?xml version="1.0" encoding="utf-8"?>
<!-- Generator: Adobe Illustrator 25.2.0, SVG Export Plug-In . SVG Version: 6.00 Build 0)  -->
<svg version="1.1" id="Layer_1" xmlns="http://www.w3.org/2000/svg" xmlns:xlink="http://www.w3.org/1999/xlink" x="0px" y="0px"
	 viewBox="0 0 110 67.6" style="enable-background:new 0 0 110 67.6;" xml:space="preserve">
<style type="text/css">
	.st0{fill:#FE1645;}
	.st1{enable-background:new    ;}
	.st2{fill:#E8E8E8;}
</style>
<g id="Group_29" transform="translate(1 0)">
	<g id="Rectangle_11">
		<rect x="1.8" y="62.4" class="st0" width="106.6" height="5.3"/>
	</g>
	<g class="st1">
		<path class="st2" d="M26.9,44c-1.6,1.3-3.8,2-6.5,2H2.9V16.3h17.5c2.7,0,4.9,0.7,6.5,2c1.6,1.3,2.5,3.2,2.5,5.6v14.4
			C29.3,40.8,28.5,42.7,26.9,44z M19.4,40.2c1.9,0,2.8-0.9,2.8-2.8V24.9c0-1.9-0.9-2.8-2.8-2.8H9.9v18H19.4z"/>
		<path class="st2" d="M58.4,16.3v5.9H42.7v5.8h14.4v5.8H42.7v6.4h15.8V46H35.6V16.3H58.4z"/>
		<path class="st2" d="M70,16.3L78.2,41l8.1-24.8h8L83.9,46H72.4L62,16.3H70z"/>
		<path class="st2" d="M105.6,13.1V19h-7.7v-5.9H105.6z M105.1,22.1V46h-6.8V22.1H105.1z"/>
	</g>
	<g class="st1">
		<path class="st2" d="M4.1,60.1c0.1,0.1,0.3,0.2,0.5,0.2h2.6v-2.9h2V62H4.4c-0.8,0-1.4-0.2-1.8-0.6c-0.4-0.4-0.6-0.9-0.6-1.6v-4.2
			c0-0.7,0.2-1.3,0.6-1.6c0.4-0.4,1-0.6,1.8-0.6h4.9v1.7H4.7c-0.3,0-0.4,0.1-0.5,0.2C4,55.4,4,55.6,4,55.9v3.6C4,59.8,4,60,4.1,60.1
			z"/>
		<path class="st2" d="M11.3,58c0.3-0.4,0.8-0.5,1.5-0.5h2.7v-0.2c0-0.2,0-0.3-0.1-0.4s-0.2-0.1-0.4-0.1h-3.7v-1.6h3.4
			c0.8,0,1.5,0.2,1.9,0.6c0.5,0.4,0.7,0.9,0.7,1.7V62h-1.8l-0.1-1.2c-0.2,0.4-0.4,0.7-0.8,0.9C14.5,61.9,14,62,13.5,62h-0.7
			c-0.6,0-1.1-0.2-1.5-0.5c-0.3-0.4-0.5-0.8-0.5-1.5v-0.5C10.8,58.9,11,58.4,11.3,58z M12.7,60.2c0.1,0.1,0.2,0.2,0.5,0.2H15
			c0.2,0,0.3,0,0.4-0.1s0.1-0.2,0.1-0.4l0-1.1h-2c-0.3,0-0.6,0.1-0.7,0.2c-0.1,0.1-0.2,0.3-0.2,0.5v0.1
			C12.6,59.9,12.7,60.1,12.7,60.2z"/>
		<path class="st2" d="M21.3,55.1v1.2c0.3-0.8,0.9-1.2,1.8-1.2h0.5c0.6,0,1,0.1,1.5,0.4c0.4,0.2,0.7,0.6,0.8,1
			c0.2-0.5,0.4-0.8,0.7-1c0.3-0.2,0.7-0.3,1.1-0.3h0.5c0.7,0,1.2,0.2,1.7,0.5c0.4,0.3,0.7,0.8,0.7,1.4v5h-2v-4.5
			c0-0.3,0-0.4-0.1-0.5c-0.1-0.1-0.2-0.2-0.5-0.2h-1.5c-0.2,0-0.4,0-0.4,0.1c-0.1,0.1-0.1,0.2-0.1,0.5V62h-2v-4.5
			c0-0.3,0-0.4-0.1-0.5c-0.1-0.1-0.2-0.2-0.5-0.2h-1.5c-0.2,0-0.4,0.1-0.5,0.2c-0.1,0.1-0.1,0.3-0.1,0.5V62h-2v-6.9H21.3z"/>
		<path class="st2" d="M33.9,59.9c0,0.2,0,0.3,0.1,0.3c0.1,0.1,0.2,0.1,0.4,0.1h4.1V62h-4.2c-0.7,0-1.2-0.2-1.6-0.5
			c-0.4-0.3-0.6-0.8-0.6-1.4V57c0-0.6,0.2-1,0.6-1.4c0.4-0.3,0.9-0.5,1.6-0.5h2c0.7,0,1.2,0.2,1.6,0.6s0.6,0.9,0.6,1.4v2.2h-4.6
			V59.9z M36.6,56.9c-0.1-0.1-0.2-0.1-0.4-0.1h-1.9c-0.2,0-0.3,0.1-0.4,0.2c-0.1,0.1-0.1,0.2-0.1,0.4v0.8h2.8v-0.8
			C36.7,57.1,36.7,57,36.6,56.9z"/>
		<path class="st2" d="M46.8,60.1c0.1,0.1,0.3,0.2,0.5,0.2h3.8V62H47c-0.8,0-1.4-0.2-1.8-0.6c-0.4-0.4-0.6-0.9-0.6-1.6v-4.2
			c0-0.7,0.2-1.3,0.6-1.6c0.4-0.4,1-0.6,1.8-0.6h4.1v1.7h-3.8c-0.3,0-0.4,0.1-0.5,0.2c-0.1,0.1-0.1,0.3-0.1,0.6v3.6
			C46.6,59.8,46.7,60,46.8,60.1z"/>
		<path class="st2" d="M59,61.5c-0.4,0.3-0.9,0.5-1.5,0.5h-2.7c-0.6,0-1.2-0.2-1.5-0.5c-0.4-0.3-0.6-0.8-0.6-1.4V57
			c0-0.6,0.2-1.1,0.6-1.4c0.4-0.3,0.9-0.5,1.5-0.5h2.7c0.6,0,1.2,0.2,1.5,0.5c0.4,0.3,0.6,0.8,0.6,1.4v3.2
			C59.6,60.7,59.4,61.2,59,61.5z M54.8,60.2c0.1,0.1,0.2,0.2,0.5,0.2H57c0.2,0,0.4-0.1,0.5-0.2c0.1-0.1,0.1-0.3,0.1-0.5v-2.2
			c0-0.3,0-0.4-0.1-0.5c-0.1-0.1-0.2-0.2-0.5-0.2h-1.8c-0.2,0-0.4,0.1-0.5,0.2c-0.1,0.1-0.1,0.3-0.1,0.5v2.2
			C54.7,59.9,54.7,60.1,54.8,60.2z"/>
		<path class="st2" d="M63.2,55.1v1.2c0.3-0.8,0.9-1.2,1.8-1.2h0.5c0.6,0,1,0.1,1.5,0.4c0.4,0.2,0.7,0.6,0.8,1
			c0.2-0.5,0.4-0.8,0.7-1c0.3-0.2,0.7-0.3,1.1-0.3h0.5c0.7,0,1.2,0.2,1.7,0.5c0.4,0.3,0.7,0.8,0.7,1.4v5h-2v-4.5
			c0-0.3,0-0.4-0.1-0.5c-0.1-0.1-0.2-0.2-0.5-0.2h-1.5c-0.2,0-0.4,0-0.4,0.1c-0.1,0.1-0.1,0.2-0.1,0.5V62h-2v-4.5
			c0-0.3,0-0.4-0.1-0.5c-0.1-0.1-0.2-0.2-0.5-0.2h-1.5c-0.2,0-0.4,0.1-0.5,0.2c-0.1,0.1-0.1,0.3-0.1,0.5V62h-2v-6.9H63.2z"/>
		<path class="st2" d="M76.1,55.1v1.2c0.2-0.4,0.4-0.7,0.8-0.9c0.4-0.2,0.8-0.3,1.3-0.3h0.7c0.7,0,1.2,0.2,1.5,0.5
			c0.4,0.3,0.6,0.8,0.6,1.4v3.2c0,0.6-0.2,1.1-0.6,1.4S79.6,62,78.9,62h-0.7c-0.5,0-0.9-0.1-1.3-0.3c-0.4-0.2-0.6-0.5-0.8-0.9v3.5
			h-1.9v-9.2H76.1z M76.3,60.2c0.1,0.1,0.2,0.1,0.4,0.1h1.7c0.2,0,0.4-0.1,0.5-0.2c0.1-0.1,0.1-0.3,0.1-0.5v-2.2
			c0-0.2,0-0.4-0.1-0.5s-0.2-0.2-0.4-0.2h-1.8c-0.2,0-0.3,0.1-0.4,0.2c-0.1,0.1-0.1,0.3-0.1,0.5v2.4C76.2,60.1,76.2,60.2,76.3,60.2z
			"/>
		<path class="st2" d="M83.1,58c0.3-0.4,0.8-0.5,1.5-0.5h2.7v-0.2c0-0.2,0-0.3-0.1-0.4s-0.2-0.1-0.4-0.1h-3.7v-1.6h3.4
			c0.8,0,1.5,0.2,1.9,0.6c0.5,0.4,0.7,0.9,0.7,1.7V62h-1.8l-0.1-1.2c-0.2,0.4-0.4,0.7-0.8,0.9c-0.4,0.2-0.8,0.3-1.3,0.3h-0.7
			c-0.6,0-1.1-0.2-1.5-0.5c-0.3-0.4-0.5-0.8-0.5-1.5v-0.5C82.6,58.9,82.7,58.4,83.1,58z M84.5,60.2c0.1,0.1,0.2,0.2,0.5,0.2h1.8
			c0.2,0,0.3,0,0.4-0.1c0.1-0.1,0.1-0.2,0.1-0.4l0-1.1h-2c-0.3,0-0.6,0.1-0.7,0.2c-0.1,0.1-0.2,0.3-0.2,0.5v0.1
			C84.4,59.9,84.4,60.1,84.5,60.2z"/>
		<path class="st2" d="M93,55.1v1.2c0.3-0.8,0.9-1.2,1.8-1.2h0.9c0.7,0,1.2,0.2,1.7,0.5c0.4,0.3,0.7,0.8,0.7,1.4v5h-2v-4.5
			c0-0.3,0-0.4-0.1-0.5c-0.1-0.1-0.2-0.2-0.5-0.2h-1.9c-0.2,0-0.4,0.1-0.5,0.2C93.1,57,93,57.2,93,57.5V62h-2v-6.9H93z"/>
		<path class="st2" d="M101.1,64.3l0.8-1.8l-2.9-7.4h2.2l1.9,5.7l1.6-5.7h2.2l-3.5,9.2H101.1z"/>
	</g>
</g>
</svg>
