<svg xmlns="http://www.w3.org/2000/svg" width="38.995" height="27.418" viewBox="0 0 38.995 27.418">
  <defs>
    <style>
      .cls-1 {
        fill: #fff;
      }
    </style>
  </defs>
  <path id="Icon_awesome-youtube" data-name="Icon awesome-youtube" class="cls-1" d="M39.23,8.79a4.9,4.9,0,0,0-3.448-3.47C32.742,4.5,20.547,4.5,20.547,4.5s-12.194,0-15.235.82A4.9,4.9,0,0,0,1.865,8.79c-.815,3.061-.815,9.447-.815,9.447s0,6.386.815,9.447A4.827,4.827,0,0,0,5.312,31.1c3.041.82,15.235.82,15.235.82s12.194,0,15.235-.82a4.827,4.827,0,0,0,3.448-3.415c.815-3.061.815-9.447.815-9.447s0-6.386-.815-9.447ZM16.559,24.035v-11.6l10.192,5.8Z" transform="translate(-1.05 -4.5)"/>
</svg>
