<svg xmlns="http://www.w3.org/2000/svg" width="31.645" height="36.165" viewBox="0 0 31.645 36.165">
  <defs>
    <style>
      .cls-1 {
        fill: #fff;
      }
    </style>
  </defs>
  <path id="Icon_awesome-discord" data-name="Icon awesome-discord" class="cls-1" d="M20.994,17.178a1.851,1.851,0,1,1-1.844-2.007A1.927,1.927,0,0,1,20.994,17.178Zm-8.445-2.007a2.014,2.014,0,0,0,0,4.014,1.927,1.927,0,0,0,1.844-2.007A1.915,1.915,0,0,0,12.549,15.171Zm19.1-11.446v32.44c-4.556-4.026-3.1-2.693-8.39-7.613l.958,3.345H3.707A3.716,3.716,0,0,1,0,28.173V3.725A3.716,3.716,0,0,1,3.707,0H27.938A3.716,3.716,0,0,1,31.645,3.725ZM26.491,20.867a24.215,24.215,0,0,0-2.6-10.542,8.942,8.942,0,0,0-5.081-1.9l-.253.289a12.034,12.034,0,0,1,4.5,2.3,15.365,15.365,0,0,0-13.508-.524c-.669.307-1.067.524-1.067.524a12.2,12.2,0,0,1,4.756-2.369l-.181-.217a8.942,8.942,0,0,0-5.081,1.9,24.215,24.215,0,0,0-2.6,10.542,6.556,6.556,0,0,0,5.515,2.749s.669-.814,1.212-1.5a5.624,5.624,0,0,1-3.164-2.134c.266.186.7.428.741.452a13.181,13.181,0,0,0,11.284.633A10.348,10.348,0,0,0,23.037,20a5.706,5.706,0,0,1-3.273,2.152c.542.687,1.193,1.465,1.193,1.465A6.61,6.61,0,0,0,26.491,20.867Z"/>
</svg>
