<svg xmlns="http://www.w3.org/2000/svg" width="31.238" height="31.231" viewBox="0 0 31.238 31.231">
  <defs>
    <style>
      .cls-1 {
        fill: #fff;
      }
    </style>
  </defs>
  <path id="Icon_awesome-instagram" data-name="Icon awesome-instagram" class="cls-1" d="M15.617,9.846a8.007,8.007,0,1,0,8.007,8.007A7.995,7.995,0,0,0,15.617,9.846Zm0,13.213a5.206,5.206,0,1,1,5.206-5.206,5.215,5.215,0,0,1-5.206,5.206Zm10.2-13.54a1.868,1.868,0,1,1-1.868-1.868A1.863,1.863,0,0,1,25.819,9.518Zm5.3,1.9A9.243,9.243,0,0,0,28.6,4.87a9.3,9.3,0,0,0-6.544-2.523c-2.578-.146-10.307-.146-12.885,0A9.29,9.29,0,0,0,2.627,4.863,9.273,9.273,0,0,0,.1,11.407c-.146,2.578-.146,10.307,0,12.885a9.242,9.242,0,0,0,2.523,6.544,9.315,9.315,0,0,0,6.544,2.523c2.578.146,10.307.146,12.885,0A9.242,9.242,0,0,0,28.6,30.836a9.3,9.3,0,0,0,2.523-6.544c.146-2.578.146-10.3,0-12.878ZM27.792,27.059a5.27,5.27,0,0,1-2.969,2.969c-2.056.815-6.934.627-9.206.627s-7.157.181-9.206-.627a5.27,5.27,0,0,1-2.969-2.969c-.815-2.056-.627-6.934-.627-9.206s-.181-7.157.627-9.206A5.27,5.27,0,0,1,6.411,5.679c2.056-.815,6.934-.627,9.206-.627s7.157-.181,9.206.627a5.27,5.27,0,0,1,2.969,2.969c.815,2.056.627,6.934.627,9.206S28.607,25.01,27.792,27.059Z" transform="translate(0.005 -2.238)"/>
</svg>
