<svg xmlns="http://www.w3.org/2000/svg" width="50" height="50" viewBox="0 0 50 50">
  <path id="Icon_awesome-layer-group" data-name="Icon awesome-layer-group" d="M1.212,14.455,23.96,24.774a2.5,2.5,0,0,0,2.079,0L48.787,14.455a2.182,2.182,0,0,0,0-3.909L26.04.226a2.5,2.5,0,0,0-2.079,0L1.212,10.545a2.183,2.183,0,0,0,0,3.91Zm47.576,8.621L43.115,20.5,27.33,27.66a5.629,5.629,0,0,1-4.66,0L6.886,20.5,1.212,23.076a2.18,2.18,0,0,0,0,3.906L23.96,37.294a2.508,2.508,0,0,0,2.079,0L48.788,26.982a2.18,2.18,0,0,0,0-3.906Zm0,12.48-5.651-2.561L27.33,40.16a5.629,5.629,0,0,1-4.66,0L6.864,32.995,1.212,35.556a2.18,2.18,0,0,0,0,3.906L23.96,49.774a2.508,2.508,0,0,0,2.079,0L48.788,39.463A2.18,2.18,0,0,0,48.788,35.556Z" transform="translate(0 0.001)" fill="#fff"/>
</svg>
